<svg width="117" height="24" viewBox="0 0 117 24" fill="none" xmlns="http://www.w3.org/2000/svg">
<path d="M16.184 6.36C16.184 12.728 5.944 19.192 3.224 21.144L16.12 21.112L16.088 23H0.76L0.568 21.976C3.576 18.616 13.464 12.248 13.464 6.104C13.464 3.064 11.128 1.208 8.504 1.208C6.936 1.208 5.24 1.88 3.896 3.352C3.384 3.896 2.872 4.12 2.456 4.12C1.272 4.12 0.76 2.424 2.584 1.592C4.312 0.792 6.488 0.311998 8.568 0.311998C12.504 0.311998 16.184 2.008 16.184 6.36ZM28.1418 0.247999C35.8858 0.119999 41.1338 3.224 41.1338 11.384C41.1338 19.992 35.8858 23.288 28.3658 23.288C26.3818 23.288 22.5418 23.096 20.3338 23.032V0.664C22.6698 0.567999 25.3898 0.279999 28.1418 0.247999ZM28.4618 22.2C33.6458 22.2 38.5418 18.872 38.5418 11.448C38.5418 4.12 33.9018 1.176 26.8618 1.176C24.5578 1.176 22.7018 1.304 22.7018 2.68L22.6698 22.008C23.7258 22.168 27.0538 22.2 28.4618 22.2ZM65.4455 17.304C65.4455 20.12 65.7975 22.232 66.1815 22.712L63.8135 23.192C63.4935 22.424 63.3655 21.144 63.3015 19.928C62.3415 22.04 59.6535 23.224 57.1255 23.224C54.2775 23.224 51.5895 21.752 51.5895 18.424C51.5895 12.024 63.2055 13.784 63.3015 10.616C63.2375 8.696 62.0215 7.384 59.8775 7.384C58.6615 7.384 57.1575 7.8 55.3975 8.824C54.8855 9.112 54.4375 9.24 54.0535 9.24C52.3255 9.24 52.1015 6.808 54.8215 6.744C56.4215 6.712 57.9895 6.616 59.3655 6.616C62.8855 6.616 65.4455 7.192 65.4455 10.744V17.304ZM63.3015 16.92V12.184C61.0615 14.168 54.2135 13.848 54.2135 18.104C54.2135 20.696 56.1335 21.944 58.1815 21.944C60.6455 21.944 63.3015 20.216 63.3015 16.92ZM75.8498 6.392C78.2818 6.392 77.8338 8.856 75.7858 8.312C75.4658 8.216 75.1458 8.184 74.8258 8.184C73.1938 8.184 71.9138 9.528 71.9138 13.912V23H69.7698V12.44C69.7698 9.624 69.4498 7.512 69.0338 7L71.4018 6.52C71.7218 7.256 71.8498 8.408 71.9138 9.528C72.6178 7.64 74.1218 6.392 75.8498 6.392ZM85.7775 21.944L86.0335 22.616C85.1055 23.064 84.1135 23.352 83.1855 23.352C81.6815 23.352 80.4335 22.52 80.4335 20.152L80.4015 7.416H78.9295V6.872H79.1215C80.6895 6.872 81.6815 5.432 81.7775 3.448H82.5775V6.648H84.8495V7.416H82.5775V19.736C82.5775 21.272 83.0575 22.2 84.3375 22.2C84.7535 22.2 85.2335 22.136 85.7775 21.944ZM89.9873 3.896C89.2193 4.056 88.4193 3.576 88.2273 2.808C88.0353 2.008 88.5473 1.208 89.3153 1.048C90.1153 0.855999 90.8833 1.336 91.0753 2.136C91.2673 2.904 90.7873 3.704 89.9873 3.896ZM88.5793 23V6.904L90.7552 6.456L90.7233 23H88.5793ZM96.5953 9.112C96.5953 13.56 106.835 11.992 106.835 18.04C106.835 21.656 103.539 23.16 100.083 23.16C98.1313 23.16 96.1153 22.68 94.6113 21.848C92.8193 20.888 93.3633 19.288 94.5153 19.288C94.9633 19.288 95.5393 19.544 96.0833 20.248C97.2033 21.688 98.8353 22.296 100.371 22.296C102.675 22.296 104.755 20.984 104.755 19.096C104.755 13.464 94.7073 15.608 94.7073 9.944C94.7073 7.192 97.0753 6.264 99.7633 6.264C101.011 6.264 102.323 6.456 103.507 6.776C105.971 7.448 105.491 9.24 104.307 9.24C103.923 9.24 103.475 9.048 103.027 8.6C101.971 7.512 100.595 7.064 99.4113 7.064C97.8753 7.064 96.5953 7.832 96.5953 9.112ZM115.84 21.944L116.096 22.616C115.168 23.064 114.176 23.352 113.248 23.352C111.744 23.352 110.496 22.52 110.496 20.152L110.464 7.416H108.992V6.872H109.184C110.752 6.872 111.744 5.432 111.84 3.448H112.64V6.648H114.912V7.416H112.64V19.736C112.64 21.272 113.12 22.2 114.4 22.2C114.816 22.2 115.296 22.136 115.84 21.944Z" fill="url(#paint0_linear_4130_47426)"/>
<defs>
<linearGradient id="paint0_linear_4130_47426" x1="21.7295" y1="1.00002" x2="194.205" y2="9.24677" gradientUnits="userSpaceOnUse">
<stop stop-color="#FAC59F"/>
<stop offset="1" stop-color="#6B47AB"/>
</linearGradient>
</defs>
</svg>
