<svg width="551" height="78" viewBox="0 0 551 78" fill="none" xmlns="http://www.w3.org/2000/svg">
<g clip-path="url(#clip0_3410_42716)">
<path d="M16.328 -135.972C28.912 -136.18 37.44 -131.136 37.44 -117.876C37.44 -103.888 28.912 -98.532 16.692 -98.532C13.468 -98.532 7.228 -98.844 3.64 -98.948V-135.296C7.436 -135.452 11.856 -135.92 16.328 -135.972ZM16.848 -100.3C25.272 -100.3 33.228 -105.708 33.228 -117.772C33.228 -129.68 25.688 -134.464 14.248 -134.464C10.504 -134.464 7.488 -134.256 7.488 -132.02L7.436 -100.612C9.152 -100.352 14.56 -100.3 16.848 -100.3ZM45.1746 -130.044C43.9266 -129.784 42.6266 -130.564 42.3146 -131.812C42.0026 -133.112 42.8346 -134.412 44.0826 -134.672C45.3826 -134.984 46.6306 -134.204 46.9426 -132.904C47.2546 -131.656 46.4746 -130.356 45.1746 -130.044ZM42.8866 -99V-125.156L46.4226 -125.884L46.3706 -99H42.8866ZM76.0849 -129.992C76.6049 -130.304 77.0729 -130.408 77.4889 -130.408C79.2569 -130.408 79.7249 -128.068 77.8529 -127.6C73.2769 -126.352 74.3689 -121.88 74.9929 -119.644C75.3049 -118.604 75.4609 -117.512 75.4609 -116.368C75.4609 -112.728 73.9009 -109.764 70.8329 -108.048H70.7809C70.6249 -107.944 70.4169 -107.84 70.2089 -107.736L61.8889 -103.628C62.4609 -103.68 63.0329 -103.732 63.6049 -103.732C72.3409 -103.732 77.3329 -99.416 77.3329 -92.552C77.3329 -85.688 72.6529 -81.008 63.5009 -81.008C54.5049 -81.008 49.6689 -85.688 49.6689 -92.344C49.6689 -96.712 51.8009 -100.248 55.8049 -102.172L64.4369 -106.436C64.3849 -106.436 64.2809 -106.436 64.2289 -106.436L63.7609 -106.384C57.4689 -106.384 51.5409 -109.14 51.5409 -116.212C51.5409 -121.984 55.8049 -126.04 63.6049 -126.04C67.9209 -126.04 71.1449 -124.844 73.1729 -122.712C72.7569 -125.624 73.3809 -128.432 76.0849 -129.992ZM64.2809 -107.736C77.1769 -107.736 73.9009 -124.688 62.8769 -124.688C49.6169 -124.688 53.5169 -107.736 64.2809 -107.736ZM62.7729 -102.172C47.4329 -102.172 51.9569 -82.568 64.4369 -82.516C79.3089 -82.516 75.5129 -102.172 62.7729 -102.172ZM83.3621 -130.044C82.1141 -129.784 80.8141 -130.564 80.5021 -131.812C80.1901 -133.112 81.0221 -134.412 82.2701 -134.672C83.5701 -134.984 84.8181 -134.204 85.1301 -132.904C85.4421 -131.656 84.6621 -130.356 83.3621 -130.044ZM81.0741 -99V-125.156L84.6101 -125.884L84.5581 -99H81.0741ZM99.9822 -100.716L100.398 -99.624C98.8902 -98.896 97.2782 -98.428 95.7702 -98.428C93.3262 -98.428 91.2982 -99.78 91.2982 -103.628L91.2462 -124.324H88.8542V-125.208H89.1662C91.7142 -125.208 93.3262 -127.548 93.4822 -130.772H94.7822V-125.572H98.4742V-124.324H94.7822V-104.304C94.7822 -101.808 95.5622 -100.3 97.6422 -100.3C98.3182 -100.3 99.0982 -100.404 99.9822 -100.716ZM125.595 -108.256C125.595 -103.68 126.167 -100.248 126.791 -99.468L122.943 -98.688C122.423 -99.936 122.215 -102.016 122.111 -103.992C120.551 -100.56 116.183 -98.636 112.075 -98.636C107.447 -98.636 103.079 -101.028 103.079 -106.436C103.079 -116.836 121.955 -113.976 122.111 -119.124C122.007 -122.244 120.031 -124.376 116.547 -124.376C114.571 -124.376 112.127 -123.7 109.267 -122.036C108.435 -121.568 107.707 -121.36 107.083 -121.36C104.275 -121.36 103.911 -125.312 108.331 -125.416C110.931 -125.468 113.479 -125.624 115.715 -125.624C121.435 -125.624 125.595 -124.688 125.595 -118.916V-108.256ZM122.111 -108.88V-116.576C118.471 -113.352 107.343 -113.872 107.343 -106.956C107.343 -102.744 110.463 -100.716 113.791 -100.716C117.795 -100.716 122.111 -103.524 122.111 -108.88ZM132.362 -138.364L135.898 -139.092L135.846 -99H132.362V-138.364ZM159.211 -121.308C161.343 -124.168 165.659 -125.884 170.027 -125.884C176.527 -125.884 183.183 -122.088 183.183 -112.52C183.183 -103.056 176.267 -98.532 168.727 -98.532C165.503 -98.532 162.227 -99.312 159.263 -100.924V-83.556L155.779 -82.88V-116.264C155.779 -120.84 155.259 -124.272 154.583 -125.104L158.431 -125.884C158.951 -124.428 159.211 -122.868 159.211 -121.308ZM168.831 -99.832C174.187 -99.832 179.127 -103.732 179.075 -112.572C179.075 -120.32 174.239 -124.012 168.467 -124.012C163.527 -124.012 159.263 -120.892 159.263 -114.964V-110.232L159.315 -110.284C159.315 -103.628 163.475 -99.78 168.831 -99.832ZM198.717 -125.988C202.669 -125.988 201.941 -121.984 198.613 -122.868C198.093 -123.024 197.573 -123.076 197.053 -123.076C194.401 -123.076 192.321 -120.892 192.321 -113.768V-99H188.837V-116.16C188.837 -120.736 188.317 -124.168 187.641 -125L191.489 -125.78C192.009 -124.584 192.217 -122.712 192.321 -120.892C193.465 -123.96 195.909 -125.988 198.717 -125.988ZM216.245 -126.196C234.341 -126.196 234.861 -98.74 216.141 -98.74C197.421 -98.74 198.097 -126.196 216.245 -126.196ZM217.025 -100.56C232.053 -100.56 228.517 -124.376 215.673 -124.376C199.969 -124.376 203.869 -100.56 217.025 -100.56ZM261.605 -108.256C261.605 -103.68 262.177 -100.248 262.853 -99.468L259.005 -98.688C258.485 -100.144 258.225 -101.704 258.225 -103.212C256.093 -100.404 251.777 -98.688 247.409 -98.688C240.909 -98.688 234.253 -102.484 234.253 -112.052C234.253 -121.464 241.169 -126.04 248.709 -126.04C251.881 -126.04 255.209 -125.208 258.121 -123.648V-138.364L261.605 -139.04V-108.256ZM258.121 -109.608L258.173 -114.34L258.121 -114.236C258.121 -120.892 253.961 -124.74 248.605 -124.74C243.249 -124.74 238.309 -120.84 238.309 -112C238.309 -104.252 243.197 -100.56 248.969 -100.56C253.909 -100.56 258.121 -103.628 258.121 -109.608ZM290.036 -108.256C290.036 -103.68 290.608 -100.248 291.284 -99.468L287.384 -98.688C286.864 -99.988 286.656 -102.12 286.604 -104.096C284.836 -100.508 281.456 -98.688 277.504 -98.688C272.2 -98.688 268.144 -102.276 268.144 -109.608V-125.572H271.628V-110.128C271.628 -103.94 274.28 -101.08 278.388 -101.08C282.808 -101.08 286.552 -104.616 286.552 -111.012V-125.572H290.036V-108.256ZM320.397 -106.02L321.229 -105.5C318.681 -101.028 313.793 -98.74 309.009 -98.74C302.301 -98.74 295.749 -103.212 295.749 -112.624C295.749 -122.348 301.885 -125.884 309.321 -125.884C311.661 -125.884 314.157 -125.52 316.601 -124.896C320.189 -124.012 319.253 -120.528 316.965 -120.528C316.237 -120.528 315.301 -120.892 314.365 -121.88C312.649 -123.596 310.257 -124.636 307.917 -124.636C303.809 -124.636 299.805 -121.516 299.805 -113.612C299.805 -104.616 305.265 -100.82 310.777 -100.82C314.625 -100.82 318.473 -102.744 320.397 -106.02ZM334.896 -100.716L335.312 -99.624C333.804 -98.896 332.192 -98.428 330.684 -98.428C328.24 -98.428 326.212 -99.78 326.212 -103.628L326.16 -124.324H323.768V-125.208H324.08C326.628 -125.208 328.24 -127.548 328.396 -130.772H329.696V-125.572H333.388V-124.324H329.696V-104.304C329.696 -101.808 330.476 -100.3 332.556 -100.3C333.232 -100.3 334.012 -100.404 334.896 -100.716ZM378.605 -108.256C378.605 -103.68 379.177 -100.248 379.853 -99.468L376.005 -98.688C375.485 -100.144 375.225 -101.704 375.225 -103.212C373.093 -100.404 368.777 -98.688 364.409 -98.688C357.909 -98.688 351.253 -102.484 351.253 -112.052C351.253 -121.464 358.169 -126.04 365.709 -126.04C368.881 -126.04 372.209 -125.208 375.121 -123.648V-138.364L378.605 -139.04V-108.256ZM375.121 -109.608L375.173 -114.34L375.121 -114.236C375.121 -120.892 370.961 -124.74 365.605 -124.74C360.249 -124.74 355.309 -120.84 355.309 -112C355.309 -104.252 360.197 -100.56 365.969 -100.56C370.909 -100.56 375.121 -103.628 375.121 -109.608ZM407.036 -103.576C407.764 -104.46 408.492 -104.772 409.064 -104.772C410.364 -104.772 410.936 -103.16 409.272 -101.964C406.412 -99.936 402.46 -98.74 398.456 -98.74C391.332 -98.74 384.26 -102.64 384.26 -112.676C384.26 -121.776 391.072 -125.884 397.728 -125.884C403.916 -125.884 409.948 -122.244 409.948 -115.692C409.948 -109.868 404.956 -106.644 399.808 -106.644C396.896 -106.644 393.984 -107.684 391.852 -109.816L392.372 -110.596C394.14 -109.088 396.324 -108.412 398.404 -108.412C402.408 -108.412 406.1 -111.116 406.1 -116.212C406.1 -121.516 401.836 -124.636 397.468 -124.636C392.944 -124.636 388.316 -121.256 388.316 -113.352C388.316 -104.096 393.88 -100.04 399.288 -100.04C402.252 -100.04 405.164 -101.288 407.036 -103.576ZM419.1 -121.568C419.1 -114.34 435.74 -116.888 435.74 -107.06C435.74 -101.184 430.384 -98.74 424.768 -98.74C421.596 -98.74 418.32 -99.52 415.876 -100.872C412.964 -102.432 413.848 -105.032 415.72 -105.032C416.448 -105.032 417.384 -104.616 418.268 -103.472C420.088 -101.132 422.74 -100.144 425.236 -100.144C428.98 -100.144 432.36 -102.276 432.36 -105.344C432.36 -114.496 416.032 -111.012 416.032 -120.216C416.032 -124.688 419.88 -126.196 424.248 -126.196C426.276 -126.196 428.408 -125.884 430.332 -125.364C434.336 -124.272 433.556 -121.36 431.632 -121.36C431.008 -121.36 430.28 -121.672 429.552 -122.4C427.836 -124.168 425.6 -124.896 423.676 -124.896C421.18 -124.896 419.1 -123.648 419.1 -121.568ZM442.995 -130.044C441.747 -129.784 440.447 -130.564 440.135 -131.812C439.823 -133.112 440.655 -134.412 441.903 -134.672C443.203 -134.984 444.451 -134.204 444.763 -132.904C445.075 -131.656 444.295 -130.356 442.995 -130.044ZM440.707 -99V-125.156L444.243 -125.884L444.191 -99H440.707ZM473.905 -129.992C474.425 -130.304 474.893 -130.408 475.309 -130.408C477.077 -130.408 477.545 -128.068 475.673 -127.6C471.097 -126.352 472.189 -121.88 472.813 -119.644C473.125 -118.604 473.281 -117.512 473.281 -116.368C473.281 -112.728 471.721 -109.764 468.653 -108.048H468.601C468.445 -107.944 468.237 -107.84 468.029 -107.736L459.709 -103.628C460.281 -103.68 460.853 -103.732 461.425 -103.732C470.161 -103.732 475.153 -99.416 475.153 -92.552C475.153 -85.688 470.473 -81.008 461.321 -81.008C452.325 -81.008 447.489 -85.688 447.489 -92.344C447.489 -96.712 449.621 -100.248 453.625 -102.172L462.257 -106.436C462.205 -106.436 462.101 -106.436 462.049 -106.436L461.581 -106.384C455.289 -106.384 449.361 -109.14 449.361 -116.212C449.361 -121.984 453.625 -126.04 461.425 -126.04C465.741 -126.04 468.965 -124.844 470.993 -122.712C470.577 -125.624 471.201 -128.432 473.905 -129.992ZM462.101 -107.736C474.997 -107.736 471.721 -124.688 460.697 -124.688C447.437 -124.688 451.337 -107.736 462.101 -107.736ZM460.593 -102.172C445.253 -102.172 449.777 -82.568 462.257 -82.516C477.129 -82.516 473.333 -102.172 460.593 -102.172ZM500.299 -108.256C500.299 -101.652 500.403 -99.78 501.079 -99H496.815V-114.392C496.815 -121.152 494.475 -124.168 490.107 -124.168C485.427 -124.168 481.267 -120.268 481.267 -113.872L481.215 -113.924V-99H477.731V-116.16C477.731 -120.736 477.211 -124.168 476.535 -125L480.383 -125.78C480.955 -124.428 481.163 -122.14 481.215 -120.164C483.139 -123.7 486.831 -125.936 490.835 -125.936C496.971 -125.936 500.299 -122.608 500.299 -114.964V-108.256ZM528.251 -103.576C528.979 -104.46 529.707 -104.772 530.279 -104.772C531.579 -104.772 532.151 -103.16 530.487 -101.964C527.627 -99.936 523.675 -98.74 519.671 -98.74C512.547 -98.74 505.475 -102.64 505.475 -112.676C505.475 -121.776 512.287 -125.884 518.943 -125.884C525.131 -125.884 531.163 -122.244 531.163 -115.692C531.163 -109.868 526.171 -106.644 521.023 -106.644C518.111 -106.644 515.199 -107.684 513.067 -109.816L513.587 -110.596C515.355 -109.088 517.539 -108.412 519.619 -108.412C523.623 -108.412 527.315 -111.116 527.315 -116.212C527.315 -121.516 523.051 -124.636 518.683 -124.636C514.159 -124.636 509.531 -121.256 509.531 -113.352C509.531 -104.096 515.095 -100.04 520.503 -100.04C523.467 -100.04 526.379 -101.288 528.251 -103.576ZM547.127 -125.988C551.079 -125.988 550.351 -121.984 547.023 -122.868C546.503 -123.024 545.983 -123.076 545.463 -123.076C542.811 -123.076 540.731 -120.892 540.731 -113.768V-99H537.247V-116.16C537.247 -120.736 536.727 -124.168 536.051 -125L539.899 -125.78C540.419 -124.584 540.627 -122.712 540.731 -120.892C541.875 -123.96 544.319 -125.988 547.127 -125.988ZM31.772 -36.08C31.772 -25.212 26.52 -20.532 17.056 -20.532C7.54 -20.532 3.12 -26.616 3.12 -36.08V-57.348H6.916L6.968 -36.08H6.916C6.916 -27.916 10.92 -22.976 18.2 -22.976C25.428 -22.976 29.588 -27.656 29.588 -36.08V-57.348H31.772V-36.08ZM66.6055 -21H62.2895L50.4335 -37.12L38.4215 -21H36.0295L49.1335 -38.888L35.5615 -57.348H39.9295L51.3175 -41.852L59.8455 -53.5C60.6255 -54.54 62.2375 -56.308 61.7695 -57.348H65.4095L52.6175 -40.084L66.6055 -21ZM92.5052 -60.78H94.4812L70.5092 -19.804H68.5332L92.5052 -60.78ZM126.073 -36.08C126.073 -25.212 120.821 -20.532 111.357 -20.532C101.841 -20.532 97.4208 -26.616 97.4208 -36.08V-57.348H101.217L101.269 -36.08H101.217C101.217 -27.916 105.221 -22.976 112.501 -22.976C119.729 -22.976 123.889 -27.656 123.889 -36.08V-57.348H126.073V-36.08ZM132.878 -21V-57.348H136.674L136.726 -21H132.878ZM182.793 -30.256C182.793 -25.68 183.365 -22.248 184.041 -21.468L180.193 -20.688C179.673 -22.144 179.413 -23.704 179.413 -25.212C177.281 -22.404 172.965 -20.688 168.597 -20.688C162.097 -20.688 155.441 -24.484 155.441 -34.052C155.441 -43.464 162.357 -48.04 169.897 -48.04C173.069 -48.04 176.397 -47.208 179.309 -45.648V-60.364L182.793 -61.04V-30.256ZM179.309 -31.608L179.361 -36.34L179.309 -36.236C179.309 -42.892 175.149 -46.74 169.793 -46.74C164.437 -46.74 159.497 -42.84 159.497 -34C159.497 -26.252 164.385 -22.56 170.157 -22.56C175.097 -22.56 179.309 -25.628 179.309 -31.608ZM211.223 -25.576C211.951 -26.46 212.679 -26.772 213.251 -26.772C214.551 -26.772 215.123 -25.16 213.459 -23.964C210.599 -21.936 206.647 -20.74 202.643 -20.74C195.519 -20.74 188.447 -24.64 188.447 -34.676C188.447 -43.776 195.259 -47.884 201.915 -47.884C208.103 -47.884 214.135 -44.244 214.135 -37.692C214.135 -31.868 209.143 -28.644 203.995 -28.644C201.083 -28.644 198.171 -29.684 196.039 -31.816L196.559 -32.596C198.327 -31.088 200.511 -30.412 202.591 -30.412C206.595 -30.412 210.287 -33.116 210.287 -38.212C210.287 -43.516 206.023 -46.636 201.655 -46.636C197.131 -46.636 192.503 -43.256 192.503 -35.352C192.503 -26.096 198.067 -22.04 203.475 -22.04C206.439 -22.04 209.351 -23.288 211.223 -25.576ZM223.288 -43.568C223.288 -36.34 239.928 -38.888 239.928 -29.06C239.928 -23.184 234.572 -20.74 228.956 -20.74C225.784 -20.74 222.508 -21.52 220.064 -22.872C217.152 -24.432 218.036 -27.032 219.908 -27.032C220.636 -27.032 221.572 -26.616 222.456 -25.472C224.276 -23.132 226.928 -22.144 229.424 -22.144C233.168 -22.144 236.548 -24.276 236.548 -27.344C236.548 -36.496 220.22 -33.012 220.22 -42.216C220.22 -46.688 224.068 -48.196 228.436 -48.196C230.464 -48.196 232.596 -47.884 234.52 -47.364C238.524 -46.272 237.744 -43.36 235.82 -43.36C235.196 -43.36 234.468 -43.672 233.74 -44.4C232.024 -46.168 229.788 -46.896 227.864 -46.896C225.368 -46.896 223.288 -45.648 223.288 -43.568ZM247.182 -52.044C245.934 -51.784 244.634 -52.564 244.322 -53.812C244.01 -55.112 244.842 -56.412 246.09 -56.672C247.39 -56.984 248.638 -56.204 248.95 -54.904C249.262 -53.656 248.482 -52.356 247.182 -52.044ZM244.894 -21V-47.156L248.43 -47.884L248.378 -21H244.894ZM278.093 -51.992C278.613 -52.304 279.081 -52.408 279.497 -52.408C281.265 -52.408 281.733 -50.068 279.861 -49.6C275.285 -48.352 276.377 -43.88 277.001 -41.644C277.313 -40.604 277.469 -39.512 277.469 -38.368C277.469 -34.728 275.909 -31.764 272.841 -30.048H272.789C272.633 -29.944 272.425 -29.84 272.217 -29.736L263.897 -25.628C264.469 -25.68 265.041 -25.732 265.613 -25.732C274.349 -25.732 279.341 -21.416 279.341 -14.552C279.341 -7.688 274.661 -3.008 265.509 -3.008C256.513 -3.008 251.677 -7.688 251.677 -14.344C251.677 -18.712 253.809 -22.248 257.813 -24.172L266.445 -28.436C266.393 -28.436 266.289 -28.436 266.237 -28.436L265.769 -28.384C259.477 -28.384 253.549 -31.14 253.549 -38.212C253.549 -43.984 257.813 -48.04 265.613 -48.04C269.929 -48.04 273.153 -46.844 275.181 -44.712C274.765 -47.624 275.389 -50.432 278.093 -51.992ZM266.289 -29.736C279.185 -29.736 275.909 -46.688 264.885 -46.688C251.625 -46.688 255.525 -29.736 266.289 -29.736ZM264.781 -24.172C249.441 -24.172 253.965 -4.568 266.445 -4.516C281.317 -4.516 277.521 -24.172 264.781 -24.172ZM304.487 -30.256C304.487 -23.652 304.591 -21.78 305.267 -21H301.003V-36.392C301.003 -43.152 298.663 -46.168 294.295 -46.168C289.615 -46.168 285.455 -42.268 285.455 -35.872L285.403 -35.924V-21H281.919V-38.16C281.919 -42.736 281.399 -46.168 280.723 -47L284.571 -47.78C285.143 -46.428 285.351 -44.14 285.403 -42.164C287.327 -45.7 291.019 -47.936 295.023 -47.936C301.159 -47.936 304.487 -44.608 304.487 -36.964V-30.256ZM332.438 -25.576C333.166 -26.46 333.894 -26.772 334.466 -26.772C335.766 -26.772 336.338 -25.16 334.674 -23.964C331.814 -21.936 327.862 -20.74 323.858 -20.74C316.734 -20.74 309.662 -24.64 309.662 -34.676C309.662 -43.776 316.474 -47.884 323.13 -47.884C329.318 -47.884 335.35 -44.244 335.35 -37.692C335.35 -31.868 330.358 -28.644 325.21 -28.644C322.298 -28.644 319.386 -29.684 317.254 -31.816L317.774 -32.596C319.542 -31.088 321.726 -30.412 323.806 -30.412C327.81 -30.412 331.502 -33.116 331.502 -38.212C331.502 -43.516 327.238 -46.636 322.87 -46.636C318.346 -46.636 313.718 -43.256 313.718 -35.352C313.718 -26.096 319.282 -22.04 324.69 -22.04C327.654 -22.04 330.566 -23.288 332.438 -25.576ZM351.314 -47.988C355.266 -47.988 354.538 -43.984 351.21 -44.868C350.69 -45.024 350.17 -45.076 349.65 -45.076C346.998 -45.076 344.918 -42.892 344.918 -35.768V-21H341.434V-38.16C341.434 -42.736 340.914 -46.168 340.238 -47L344.086 -47.78C344.606 -46.584 344.814 -44.712 344.918 -42.892C346.062 -45.96 348.506 -47.988 351.314 -47.988ZM27.924 29.96C27.924 40.308 11.284 50.812 6.864 53.984L27.82 53.932L27.768 57H2.86L2.548 55.336C7.436 49.876 23.504 39.528 23.504 29.544C23.504 24.604 19.708 21.588 15.444 21.588C12.896 21.588 10.14 22.68 7.956 25.072C7.124 25.956 6.292 26.32 5.616 26.32C3.692 26.32 2.86 23.564 5.824 22.212C8.632 20.912 12.168 20.132 15.548 20.132C21.944 20.132 27.924 22.888 27.924 29.96ZM47.3553 20.028C59.9393 19.82 68.4673 24.864 68.4673 38.124C68.4673 52.112 59.9393 57.468 47.7193 57.468C44.4953 57.468 38.2553 57.156 34.6673 57.052V20.704C38.4633 20.548 42.8833 20.08 47.3553 20.028ZM47.8753 55.7C56.2993 55.7 64.2553 50.292 64.2553 38.228C64.2553 26.32 56.7153 21.536 45.2753 21.536C41.5313 21.536 38.5153 21.744 38.5153 23.98L38.4633 55.388C40.1793 55.648 45.5873 55.7 47.8753 55.7ZM110.21 26.008C110.73 25.696 111.198 25.592 111.614 25.592C113.382 25.592 113.85 27.932 111.978 28.4C107.402 29.648 108.494 34.12 109.118 36.356C109.43 37.396 109.586 38.488 109.586 39.632C109.586 43.272 108.026 46.236 104.958 47.952H104.906C104.75 48.056 104.542 48.16 104.334 48.264L96.0139 52.372C96.5859 52.32 97.1579 52.268 97.7299 52.268C106.466 52.268 111.458 56.584 111.458 63.448C111.458 70.312 106.778 74.992 97.6259 74.992C88.6299 74.992 83.7939 70.312 83.7939 63.656C83.7939 59.288 85.9259 55.752 89.9299 53.828L98.5619 49.564C98.5099 49.564 98.4059 49.564 98.3539 49.564L97.8859 49.616C91.5939 49.616 85.6659 46.86 85.6659 39.788C85.6659 34.016 89.9299 29.96 97.7299 29.96C102.046 29.96 105.27 31.156 107.298 33.288C106.882 30.376 107.506 27.568 110.21 26.008ZM98.4059 48.264C111.302 48.264 108.026 31.312 97.0019 31.312C83.7419 31.312 87.6419 48.264 98.4059 48.264ZM96.8979 53.828C81.5579 53.828 86.0819 73.432 98.5619 73.484C113.434 73.484 109.638 53.828 96.8979 53.828ZM134.888 47.744C134.888 52.32 135.46 55.752 136.084 56.532L132.236 57.312C131.716 56.064 131.508 53.984 131.404 52.008C129.844 55.44 125.476 57.364 121.368 57.364C116.74 57.364 112.372 54.972 112.372 49.564C112.372 39.164 131.248 42.024 131.404 36.876C131.3 33.756 129.324 31.624 125.84 31.624C123.864 31.624 121.42 32.3 118.56 33.964C117.728 34.432 117 34.64 116.376 34.64C113.568 34.64 113.204 30.688 117.624 30.584C120.224 30.532 122.772 30.376 125.008 30.376C130.728 30.376 134.888 31.312 134.888 37.084V47.744ZM131.404 47.12V39.424C127.764 42.648 116.636 42.128 116.636 49.044C116.636 53.256 119.756 55.284 123.084 55.284C127.088 55.284 131.404 52.476 131.404 47.12ZM183.567 47.744C183.567 54.348 183.671 56.22 184.347 57H180.083V41.608C180.083 34.848 177.743 31.832 173.375 31.832C168.695 31.832 164.483 35.732 164.483 42.128V57H160.999V41.608C160.999 34.848 158.659 31.832 154.291 31.832C149.611 31.832 145.451 35.732 145.451 42.128L145.399 42.076V57H141.915V39.84C141.915 35.264 141.395 31.832 140.719 31L144.567 30.22C145.139 31.572 145.347 33.86 145.399 35.836C147.323 32.3 151.015 30.064 155.019 30.064C159.855 30.064 162.923 32.144 164.015 36.72C165.575 33.34 169.059 30.064 174.103 30.064C180.187 30.064 183.567 33.392 183.567 41.036V47.744ZM211.528 52.424C212.256 51.54 212.984 51.228 213.556 51.228C214.856 51.228 215.428 52.84 213.764 54.036C210.904 56.064 206.952 57.26 202.948 57.26C195.824 57.26 188.752 53.36 188.752 43.324C188.752 34.224 195.564 30.116 202.22 30.116C208.408 30.116 214.44 33.756 214.44 40.308C214.44 46.132 209.448 49.356 204.3 49.356C201.388 49.356 198.476 48.316 196.344 46.184L196.864 45.404C198.632 46.912 200.816 47.588 202.896 47.588C206.9 47.588 210.592 44.884 210.592 39.788C210.592 34.484 206.328 31.364 201.96 31.364C197.436 31.364 192.808 34.744 192.808 42.648C192.808 51.904 198.372 55.96 203.78 55.96C206.744 55.96 209.656 54.712 211.528 52.424ZM254.376 47.744C254.376 52.32 254.948 55.752 255.572 56.532L251.724 57.312C251.204 56.064 250.996 53.984 250.892 52.008C249.332 55.44 244.964 57.364 240.856 57.364C236.228 57.364 231.86 54.972 231.86 49.564C231.86 39.164 250.736 42.024 250.892 36.876C250.788 33.756 248.812 31.624 245.328 31.624C243.352 31.624 240.908 32.3 238.048 33.964C237.216 34.432 236.488 34.64 235.864 34.64C233.056 34.64 232.692 30.688 237.112 30.584C239.712 30.532 242.26 30.376 244.496 30.376C250.216 30.376 254.376 31.312 254.376 37.084V47.744ZM250.892 47.12V39.424C247.252 42.648 236.124 42.128 236.124 49.044C236.124 53.256 239.244 55.284 242.572 55.284C246.576 55.284 250.892 52.476 250.892 47.12ZM271.283 30.012C275.235 30.012 274.507 34.016 271.179 33.132C270.659 32.976 270.139 32.924 269.619 32.924C266.967 32.924 264.887 35.108 264.887 42.232V57H261.403V39.84C261.403 35.264 260.883 31.832 260.207 31L264.055 30.22C264.575 31.416 264.783 33.288 264.887 35.108C266.031 32.04 268.475 30.012 271.283 30.012ZM287.416 55.284L287.832 56.376C286.324 57.104 284.712 57.572 283.204 57.572C280.76 57.572 278.732 56.22 278.732 52.372L278.68 31.676H276.288V30.792H276.6C279.148 30.792 280.76 28.452 280.916 25.228H282.216V30.428H285.908V31.676H282.216V51.696C282.216 54.192 282.996 55.7 285.076 55.7C285.752 55.7 286.532 55.596 287.416 55.284ZM294.257 25.956C293.009 26.216 291.709 25.436 291.397 24.188C291.085 22.888 291.917 21.588 293.165 21.328C294.465 21.016 295.713 21.796 296.025 23.096C296.337 24.344 295.557 25.644 294.257 25.956ZM291.969 57V30.844L295.505 30.116L295.453 57H291.969ZM304.995 34.432C304.995 41.66 321.635 39.112 321.635 48.94C321.635 54.816 316.279 57.26 310.663 57.26C307.491 57.26 304.215 56.48 301.771 55.128C298.859 53.568 299.743 50.968 301.615 50.968C302.343 50.968 303.279 51.384 304.163 52.528C305.983 54.868 308.635 55.856 311.131 55.856C314.875 55.856 318.255 53.724 318.255 50.656C318.255 41.504 301.927 44.988 301.927 35.784C301.927 31.312 305.775 29.804 310.143 29.804C312.171 29.804 314.303 30.116 316.227 30.636C320.231 31.728 319.451 34.64 317.527 34.64C316.903 34.64 316.175 34.328 315.447 33.6C313.731 31.832 311.495 31.104 309.571 31.104C307.075 31.104 304.995 32.352 304.995 34.432ZM336.267 55.284L336.683 56.376C335.175 57.104 333.563 57.572 332.055 57.572C329.611 57.572 327.583 56.22 327.583 52.372L327.531 31.676H325.139V30.792H325.451C327.999 30.792 329.611 28.452 329.767 25.228H331.067V30.428H334.759V31.676H331.067V51.696C331.067 54.192 331.847 55.7 333.927 55.7C334.603 55.7 335.383 55.596 336.267 55.284Z" fill="url(#paint0_linear_3410_42716)"/>
</g>
<defs>
<linearGradient id="paint0_linear_3410_42716" x1="275.5" y1="-127.969" x2="275.5" y2="57.2813" gradientUnits="userSpaceOnUse">
<stop stop-color="#FAC59F"/>
<stop offset="1" stop-color="#6B47AB"/>
</linearGradient>
<clipPath id="clip0_3410_42716">
<rect width="551" height="78" fill="white"/>
</clipPath>
</defs>
</svg>
