<svg width="169" height="29" viewBox="0 0 169 29" fill="none" xmlns="http://www.w3.org/2000/svg">
<path d="M19.728 28L17.496 22.456H3.996L2.808 25.336C2.484 26.164 2.16 27.28 2.412 28H0.36L10.62 2.836H12.384L22.68 28H19.728ZM4.356 21.556H17.1L10.764 6.004L4.356 21.556ZM29.0385 12.484C30.5865 10.36 33.3585 9.208 36.2385 9.208C40.8105 9.208 45.5625 12.124 45.5625 18.532C45.5625 25.084 40.8105 28.216 35.5185 28.216C33.8985 28.216 32.0265 27.568 30.1545 27.568C29.2185 27.568 28.2825 27.748 27.3465 28.216L26.6265 28V0.747999L29.0745 0.243999L29.0385 12.484ZM35.6265 27.352C39.3345 27.316 42.7545 24.616 42.7545 18.532C42.7545 13.132 39.6225 10.576 35.6265 10.576C32.2785 10.576 29.1465 12.664 29.0385 16.66V21.592C29.0385 25.444 31.4145 27.352 35.6265 27.352ZM59.3454 9.172C71.8734 9.172 72.2334 28.18 59.2734 28.18C46.3134 28.18 46.7814 9.172 59.3454 9.172ZM59.8854 26.92C70.2894 26.92 67.8414 10.432 58.9494 10.432C48.0774 10.432 50.7774 26.92 59.8854 26.92ZM88.8044 21.592C88.8044 24.76 89.2004 27.136 89.6684 27.676L86.9684 28.216C86.6084 27.316 86.4644 25.84 86.4284 24.472C85.2044 26.956 82.8644 28.216 80.1284 28.216C76.4564 28.216 73.6484 25.732 73.6484 20.656V9.604H76.0604V20.296C76.0604 24.58 77.8964 26.56 80.7404 26.56C83.8004 26.56 86.3924 24.112 86.3924 19.684V9.604H88.8044V21.592ZM101.364 26.812L101.652 27.568C100.608 28.072 99.4919 28.396 98.4479 28.396C96.7559 28.396 95.3519 27.46 95.3519 24.796L95.3159 10.468H93.6599V9.856H93.8759C95.6399 9.856 96.7559 8.236 96.8639 6.004H97.7639V9.604H100.32V10.468H97.7639V24.328C97.7639 26.056 98.3039 27.1 99.7439 27.1C100.212 27.1 100.752 27.028 101.364 26.812ZM145.016 21.592C145.016 26.164 145.088 27.46 145.556 28H142.604V17.344C142.604 12.664 140.984 10.576 137.96 10.576C134.72 10.576 131.804 13.276 131.804 17.704V28H129.392V17.344C129.392 12.664 127.772 10.576 124.748 10.576C121.508 10.576 118.628 13.276 118.628 17.704L118.592 17.668V28H116.18V16.12C116.18 12.952 115.82 10.576 115.352 10L118.016 9.46C118.412 10.396 118.556 11.98 118.592 13.348C119.924 10.9 122.48 9.352 125.252 9.352C128.6 9.352 130.724 10.792 131.48 13.96C132.56 11.62 134.972 9.352 138.464 9.352C142.676 9.352 145.016 11.656 145.016 16.948V21.592ZM165.633 24.832C166.137 24.22 166.641 24.004 167.037 24.004C167.937 24.004 168.333 25.12 167.181 25.948C165.201 27.352 162.465 28.18 159.693 28.18C154.761 28.18 149.865 25.48 149.865 18.532C149.865 12.232 154.581 9.388 159.189 9.388C163.473 9.388 167.649 11.908 167.649 16.444C167.649 20.476 164.193 22.708 160.629 22.708C158.613 22.708 156.597 21.988 155.121 20.512L155.481 19.972C156.705 21.016 158.217 21.484 159.657 21.484C162.429 21.484 164.985 19.612 164.985 16.084C164.985 12.412 162.033 10.252 159.009 10.252C155.877 10.252 152.673 12.592 152.673 18.064C152.673 24.472 156.525 27.28 160.269 27.28C162.321 27.28 164.337 26.416 165.633 24.832Z" fill="url(#paint0_linear_3278_1187)"/>
<defs>
<linearGradient id="paint0_linear_3278_1187" x1="54.4" y1="-9" x2="101.398" y2="40.5013" gradientUnits="userSpaceOnUse">
<stop stop-color="#FAC59F"/>
<stop offset="1" stop-color="#6B47AB"/>
</linearGradient>
</defs>
</svg>
