<svg width="27" height="24" viewBox="0 0 27 24" fill="none" xmlns="http://www.w3.org/2000/svg">
<path d="M7.776 10.56C9.312 11.008 10.528 11.808 11.424 12.96C12.384 14.112 12.864 15.424 12.864 16.896C12.864 18.688 12.224 20.224 10.944 21.504C9.728 22.72 8.224 23.328 6.432 23.328C4.704 23.328 3.2 22.656 1.92 21.312C0.64 19.904 0 17.92 0 15.36C0 14.08 0.16 12.736 0.48 11.328C0.8 9.92 1.312 8.448 2.016 6.912C2.72 5.312 3.744 3.904 5.088 2.688C6.496 1.472 8.128 0.639999 9.984 0.191998L10.848 0L11.616 3.168L10.656 3.36C9.504 3.552 8.544 4.128 7.776 5.088C7.008 5.984 6.464 6.976 6.144 8.064C6.016 8.896 6.048 9.472 6.24 9.792C6.496 10.112 6.976 10.368 7.68 10.56H7.776ZM21.888 10.56C23.424 11.008 24.64 11.808 25.536 12.96C26.496 14.112 26.976 15.424 26.976 16.896C26.976 18.688 26.336 20.224 25.056 21.504C23.84 22.72 22.336 23.328 20.544 23.328C18.816 23.328 17.312 22.656 16.032 21.312C14.752 19.904 14.112 17.92 14.112 15.36C14.112 14.4 14.208 13.376 14.4 12.288C14.592 11.136 14.912 9.92 15.36 8.64C15.872 7.36 16.48 6.176 17.184 5.088C17.888 3.936 18.848 2.944 20.064 2.112C21.28 1.216 22.624 0.575996 24.096 0.191998L24.96 0L25.728 3.168L24.768 3.36C23.616 3.552 22.656 4.128 21.888 5.088C21.12 5.984 20.608 6.976 20.352 8.064C20.16 8.896 20.16 9.472 20.352 9.792C20.608 10.112 21.088 10.368 21.792 10.56H21.888Z" fill="white"/>
</svg>
