<svg width="27" height="24" viewBox="0 0 27 24" fill="none" xmlns="http://www.w3.org/2000/svg">
<path d="M19.2006 10.56C17.6646 11.008 16.4486 11.808 15.5526 12.96C14.5926 14.112 14.1126 15.424 14.1126 16.896C14.1126 18.688 14.7526 20.224 16.0326 21.504C17.2486 22.72 18.7526 23.328 20.5446 23.328C22.2726 23.328 23.7766 22.656 25.0566 21.312C26.3366 19.904 26.9766 17.92 26.9766 15.36C26.9766 14.08 26.8166 12.736 26.4966 11.328C26.1766 9.92 25.6646 8.448 24.9606 6.912C24.2566 5.312 23.2326 3.904 21.8886 2.688C20.4806 1.472 18.8486 0.639999 16.9926 0.191998L16.1286 0L15.3606 3.168L16.3206 3.36C17.4726 3.552 18.4326 4.128 19.2006 5.088C19.9686 5.984 20.5126 6.976 20.8326 8.064C20.9606 8.896 20.9286 9.472 20.7366 9.792C20.4806 10.112 20.0006 10.368 19.2966 10.56H19.2006ZM5.08856 10.56C3.55256 11.008 2.33656 11.808 1.44056 12.96C0.48056 14.112 0.00056076 15.424 0.00056076 16.896C0.00056076 18.688 0.64056 20.224 1.92056 21.504C3.13656 22.72 4.64056 23.328 6.43256 23.328C8.16056 23.328 9.66456 22.656 10.9446 21.312C12.2246 19.904 12.8646 17.92 12.8646 15.36C12.8646 14.4 12.7686 13.376 12.5766 12.288C12.3846 11.136 12.0646 9.92 11.6166 8.64C11.1046 7.36 10.4966 6.176 9.79256 5.088C9.08856 3.936 8.12856 2.944 6.91256 2.112C5.69656 1.216 4.35256 0.575996 2.88056 0.191998L2.01656 0L1.24856 3.168L2.20856 3.36C3.36056 3.552 4.32056 4.128 5.08856 5.088C5.85656 5.984 6.36856 6.976 6.62456 8.064C6.81656 8.896 6.81656 9.472 6.62456 9.792C6.36856 10.112 5.88856 10.368 5.18456 10.56H5.08856Z" fill="white"/>
</svg>
