<svg width="225" height="26" viewBox="0 0 225 26" fill="none" xmlns="http://www.w3.org/2000/svg">
<path d="M13.6978 13.032C16.8338 13.64 18.4978 15.688 18.4978 18.888C18.4978 22.792 16.1618 25.192 9.88975 25.192C6.72175 25.192 2.81775 24.872 0.83375 24.904V2.888C3.39375 2.76 6.65775 2.44 9.44175 2.44C14.5298 2.44 17.1218 4.424 17.1218 7.784C17.1218 10.344 16.0338 12.168 13.6978 13.032ZM8.06575 3.336C4.35375 3.336 3.20175 3.88 3.20175 5.512V12.776H9.28175C12.5138 12.776 15.0738 11.112 15.0738 8.168C15.0738 5.032 13.0578 3.336 8.06575 3.336ZM9.88975 24.008C12.6738 24.008 16.1618 23.848 16.1618 18.6C16.1618 16.168 14.5298 13.864 10.6898 13.864H3.20175L3.16975 23.784C5.28175 23.784 7.52175 24.008 9.88975 24.008ZM34.7893 19.304C34.7893 22.12 35.1413 24.232 35.5253 24.712L33.1573 25.192C32.8373 24.424 32.7093 23.144 32.6453 21.928C31.6853 24.04 28.9973 25.224 26.4693 25.224C23.6213 25.224 20.9333 23.752 20.9333 20.424C20.9333 14.024 32.5493 15.784 32.6453 12.616C32.5813 10.696 31.3653 9.384 29.2213 9.384C28.0052 9.384 26.5013 9.8 24.7413 10.824C24.2293 11.112 23.7812 11.24 23.3973 11.24C21.6693 11.24 21.4453 8.808 24.1653 8.744C25.7653 8.712 27.3333 8.616 28.7093 8.616C32.2293 8.616 34.7893 9.192 34.7893 12.744V19.304ZM32.6453 18.92V14.184C30.4053 16.168 23.5573 15.848 23.5573 20.104C23.5573 22.696 25.4773 23.944 27.5253 23.944C29.9893 23.944 32.6453 22.216 32.6453 18.92ZM41.0015 11.112C41.0015 15.56 51.2415 13.992 51.2415 20.04C51.2415 23.656 47.9455 25.16 44.4895 25.16C42.5375 25.16 40.5215 24.68 39.0175 23.848C37.2255 22.888 37.7695 21.288 38.9215 21.288C39.3695 21.288 39.9455 21.544 40.4895 22.248C41.6095 23.688 43.2415 24.296 44.7775 24.296C47.0815 24.296 49.1615 22.984 49.1615 21.096C49.1615 15.464 39.1135 17.608 39.1135 11.944C39.1135 9.192 41.4815 8.264 44.1695 8.264C45.4175 8.264 46.7295 8.456 47.9135 8.776C50.3775 9.448 49.8975 11.24 48.7135 11.24C48.3295 11.24 47.8815 11.048 47.4335 10.6C46.3775 9.512 45.0015 9.064 43.8175 9.064C42.2815 9.064 41.0015 9.832 41.0015 11.112ZM67.7023 22.184C68.1503 21.64 68.5983 21.448 68.9503 21.448C69.7503 21.448 70.1023 22.44 69.0783 23.176C67.3183 24.424 64.8863 25.16 62.4223 25.16C58.0383 25.16 53.6863 22.76 53.6863 16.584C53.6863 10.984 57.8783 8.456 61.9743 8.456C65.7823 8.456 69.4943 10.696 69.4943 14.728C69.4943 18.312 66.4223 20.296 63.2543 20.296C61.4623 20.296 59.6703 19.656 58.3583 18.344L58.6783 17.864C59.7663 18.792 61.1103 19.208 62.3903 19.208C64.8543 19.208 67.1263 17.544 67.1263 14.408C67.1263 11.144 64.5023 9.224 61.8142 9.224C59.0303 9.224 56.1823 11.304 56.1823 16.168C56.1823 21.864 59.6063 24.36 62.9343 24.36C64.7583 24.36 66.5503 23.592 67.7023 22.184ZM89.2065 19.304C89.2065 22.12 89.5585 24.232 89.9745 24.712L87.6065 25.192C87.2865 24.296 87.1265 23.336 87.1265 22.408C85.8145 24.136 83.1585 25.192 80.4705 25.192C76.4705 25.192 72.3745 22.856 72.3745 16.968C72.3745 11.176 76.6305 8.36 81.2705 8.36C83.2225 8.36 85.2705 8.872 87.0625 9.832V0.775999L89.2065 0.359999V19.304ZM87.0625 18.472L87.0945 15.56L87.0625 15.624C87.0625 11.528 84.5025 9.16 81.2065 9.16C77.9105 9.16 74.8705 11.56 74.8705 17C74.8705 21.768 77.8785 24.04 81.4305 24.04C84.4705 24.04 87.0625 22.152 87.0625 18.472ZM102.862 5.896C102.094 6.056 101.294 5.576 101.102 4.808C100.91 4.008 101.422 3.208 102.19 3.048C102.99 2.856 103.758 3.336 103.95 4.136C104.142 4.904 103.662 5.704 102.862 5.896ZM101.454 25V8.904L103.63 8.456L103.598 25H101.454ZM121.502 19.304C121.502 23.368 121.566 24.52 121.982 25H119.358V15.528C119.358 11.368 117.918 9.512 115.23 9.512C112.35 9.512 109.79 11.912 109.79 15.848L109.758 15.816V25H107.614V14.44C107.614 11.624 107.294 9.512 106.878 9L109.246 8.52C109.598 9.352 109.726 10.76 109.758 11.976C110.942 9.8 113.214 8.424 115.678 8.424C119.454 8.424 121.502 10.472 121.502 15.176V19.304ZM148.878 25V14.632H136.014V25H133.646V2.632H135.982L136.014 13.832H148.878V2.632H151.214L151.246 25H148.878ZM175.357 20.52L176.221 21.128C174.109 23.944 170.237 25.544 166.333 25.544C160.541 25.544 154.749 22.024 154.749 13.96C154.749 5.416 160.797 2.44 166.781 2.44C169.149 2.44 171.485 2.888 173.437 3.656C175.805 4.584 175.165 6.504 173.693 6.504C173.213 6.504 172.605 6.28 171.997 5.704C170.301 4.136 168.125 3.336 166.013 3.336C161.693 3.336 157.501 6.6 157.501 13.384C157.501 21.032 162.493 23.912 167.325 23.912C170.589 23.912 173.789 22.6 175.357 20.52ZM200.299 25H197.547L195.371 6.248L189.387 25H188.331L181.835 7.016L179.403 25H178.027L181.067 2.632H183.083L189.387 20.488L195.211 2.632H197.675C198.283 7.976 199.531 18.44 200.299 25ZM223.482 20.52L224.346 21.128C222.234 23.944 218.362 25.544 214.458 25.544C208.666 25.544 202.874 22.024 202.874 13.96C202.874 5.416 208.922 2.44 214.906 2.44C217.274 2.44 219.61 2.888 221.562 3.656C223.93 4.584 223.29 6.504 221.818 6.504C221.338 6.504 220.73 6.28 220.122 5.704C218.426 4.136 216.25 3.336 214.138 3.336C209.818 3.336 205.626 6.6 205.626 13.384C205.626 21.032 210.618 23.912 215.45 23.912C218.714 23.912 221.914 22.6 223.482 20.52Z" fill="white"/>
</svg>
