<svg width="117" height="24" viewBox="0 0 117 24" fill="none" xmlns="http://www.w3.org/2000/svg">
<path d="M21.1693 18.52L22.0333 19.128C19.9213 21.944 16.0493 23.544 12.1453 23.544C6.35325 23.544 0.56125 20.024 0.56125 11.96C0.56125 3.416 6.60925 0.439999 12.5933 0.439999C14.9613 0.439999 17.2973 0.887999 19.2493 1.656C21.6173 2.584 20.9773 4.504 19.5053 4.504C19.0253 4.504 18.4173 4.28 17.8093 3.704C16.1133 2.136 13.9373 1.336 11.8253 1.336C7.50525 1.336 3.31325 4.6 3.31325 11.384C3.31325 19.032 8.30525 21.912 13.1373 21.912C16.4013 21.912 19.6013 20.6 21.1693 18.52ZM31.9675 22.2C34.5915 22.2 38.2075 22.168 39.6795 21.912L39.5195 23H24.9275V0.631998H27.2635L27.2955 22.136C28.7995 22.2 30.5275 22.2 31.9675 22.2ZM42.0213 23V0.631998H44.3573L44.3893 23H42.0213ZM51.2018 22.136C52.7058 22.2 54.4338 22.2 55.8738 22.2C58.4978 22.2 62.1138 22.168 63.5858 21.912L63.4258 23H48.8338V0.631998H63.4258L63.5858 1.72C62.1138 1.464 58.4978 1.432 55.8738 1.432C54.4338 1.432 52.7058 1.432 51.1698 1.496L51.2018 11.224H60.2258V12.024H51.2018V22.136ZM82.4305 0.631998V23.384H81.7585L67.6465 5.72V23H66.3025V0.247999H66.9105L81.0865 17.912V0.631998H82.4305ZM100.144 1.72C98.8955 1.496 96.1115 1.432 93.6795 1.432V23H91.3115V1.432C88.8795 1.432 86.0315 1.496 84.7515 1.72L84.9115 0.631998H100.016L100.144 1.72ZM103.653 4.792C103.653 10.904 116.741 9.048 116.741 16.6C116.741 21.432 112.805 23.352 108.485 23.352C106.373 23.352 104.133 22.872 102.245 22.072C99.8453 21.048 100.581 18.904 102.053 18.904C102.597 18.904 103.237 19.192 103.877 19.928C105.381 21.656 107.301 22.392 109.125 22.392C112.037 22.392 114.693 20.44 114.693 17.624C114.693 11.256 101.893 13.496 101.893 5.752C101.893 1.912 104.997 0.567999 108.485 0.567999C109.861 0.567999 111.269 0.759998 112.581 1.112C115.525 1.912 114.853 4.12 113.317 4.12C112.805 4.12 112.197 3.864 111.621 3.288C110.373 2.04 108.805 1.464 107.397 1.464C105.381 1.464 103.653 2.648 103.653 4.792Z" fill="url(#paint0_linear_3278_1479)"/>
<defs>
<linearGradient id="paint0_linear_3278_1479" x1="18.36" y1="-20" x2="78.4232" y2="44.8321" gradientUnits="userSpaceOnUse">
<stop stop-color="#FAC59F"/>
<stop offset="1" stop-color="#6B47AB"/>
</linearGradient>
</defs>
</svg>
