<svg width="149" height="20" viewBox="0 0 149 20" fill="none" xmlns="http://www.w3.org/2000/svg">
<path d="M16.416 15.64L17.064 16.096C15.48 18.208 12.576 19.408 9.648 19.408C5.304 19.408 0.96 16.768 0.96 10.72C0.96 4.312 5.496 2.08 9.984 2.08C11.76 2.08 13.512 2.416 14.976 2.992C16.752 3.688 16.272 5.128 15.168 5.128C14.808 5.128 14.352 4.96 13.896 4.528C12.624 3.352 10.992 2.752 9.408 2.752C6.168 2.752 3.024 5.2 3.024 10.288C3.024 16.024 6.768 18.184 10.392 18.184C12.84 18.184 15.24 17.2 16.416 15.64ZM24.5867 6.544C26.4107 6.544 26.0747 8.392 24.5387 7.984C24.2987 7.912 24.0587 7.888 23.8187 7.888C22.5947 7.888 21.6347 8.896 21.6347 12.184V19H20.0267V11.08C20.0267 8.968 19.7867 7.384 19.4747 7L21.2507 6.64C21.4907 7.192 21.5867 8.056 21.6347 8.896C22.1627 7.48 23.2907 6.544 24.5867 6.544ZM37.6208 16.888C37.9568 16.48 38.2928 16.336 38.5568 16.336C39.1568 16.336 39.4208 17.08 38.6528 17.632C37.3328 18.568 35.5088 19.12 33.6608 19.12C30.3728 19.12 27.1088 17.32 27.1088 12.688C27.1088 8.488 30.2528 6.592 33.3248 6.592C36.1808 6.592 38.9648 8.272 38.9648 11.296C38.9648 13.984 36.6608 15.472 34.2848 15.472C32.9408 15.472 31.5968 14.992 30.6128 14.008L30.8528 13.648C31.6688 14.344 32.6768 14.656 33.6368 14.656C35.4848 14.656 37.1888 13.408 37.1888 11.056C37.1888 8.608 35.2208 7.168 33.2048 7.168C31.1168 7.168 28.9808 8.728 28.9808 12.376C28.9808 16.648 31.5488 18.52 34.0448 18.52C35.4128 18.52 36.7568 17.944 37.6208 16.888ZM52.2369 14.728C52.2369 16.84 52.5009 18.424 52.7889 18.784L51.0129 19.144C50.7729 18.568 50.6769 17.608 50.6289 16.696C49.9089 18.28 47.8929 19.168 45.9969 19.168C43.8609 19.168 41.8449 18.064 41.8449 15.568C41.8449 10.768 50.5569 12.088 50.6289 9.712C50.5809 8.272 49.6689 7.288 48.0609 7.288C47.1489 7.288 46.0209 7.6 44.7009 8.368C44.3169 8.584 43.9809 8.68 43.6929 8.68C42.3969 8.68 42.2289 6.856 44.2689 6.808C45.4689 6.784 46.6449 6.712 47.6769 6.712C50.3169 6.712 52.2369 7.144 52.2369 9.808V14.728ZM50.6289 14.44V10.888C48.9489 12.376 43.8129 12.136 43.8129 15.328C43.8129 17.272 45.2529 18.208 46.7889 18.208C48.6369 18.208 50.6289 16.912 50.6289 14.44ZM60.3338 18.208L60.5258 18.712C59.8298 19.048 59.0858 19.264 58.3898 19.264C57.2618 19.264 56.3258 18.64 56.3258 16.864L56.3018 7.312H55.1978V6.904H55.3418C56.5178 6.904 57.2618 5.824 57.3338 4.336H57.9338V6.736H59.6378V7.312H57.9338V16.552C57.9338 17.704 58.2938 18.4 59.2538 18.4C59.5658 18.4 59.9258 18.352 60.3338 18.208ZM64.3311 4.672C63.7551 4.792 63.1551 4.432 63.0111 3.856C62.8671 3.256 63.2511 2.656 63.8271 2.536C64.4271 2.392 65.0031 2.752 65.1471 3.352C65.2911 3.928 64.9311 4.528 64.3311 4.672ZM63.2751 19V6.928L64.9071 6.592L64.8831 19H63.2751ZM77.2746 6.736H78.6666L73.6746 19H72.6426L67.6266 6.736H69.4026L73.5546 16.936L77.0346 8.512C77.2506 7.96 77.4666 7.216 77.2746 6.736ZM91.3676 16.888C91.7036 16.48 92.0396 16.336 92.3036 16.336C92.9036 16.336 93.1676 17.08 92.3996 17.632C91.0796 18.568 89.2556 19.12 87.4076 19.12C84.1196 19.12 80.8556 17.32 80.8556 12.688C80.8556 8.488 83.9996 6.592 87.0716 6.592C89.9276 6.592 92.7116 8.272 92.7116 11.296C92.7116 13.984 90.4076 15.472 88.0316 15.472C86.6876 15.472 85.3436 14.992 84.3596 14.008L84.5996 13.648C85.4156 14.344 86.4236 14.656 87.3836 14.656C89.2316 14.656 90.9356 13.408 90.9356 11.056C90.9356 8.608 88.9676 7.168 86.9516 7.168C84.8636 7.168 82.7276 8.728 82.7276 12.376C82.7276 16.648 85.2956 18.52 87.7916 18.52C89.1596 18.52 90.5036 17.944 91.3676 16.888ZM106.8 3.52C106.296 2.992 105.576 2.728 104.928 2.728C104.04 2.728 103.272 3.256 103.272 4.384C103.272 5.512 104.304 6.784 106.896 6.856L107.76 6.904V7.312H105.336V19H103.728V7.312H102.096V6.736H103.416C101.472 5.488 101.928 2.032 105.648 2.032C106.2 2.032 106.776 2.128 107.304 2.296C108.864 2.776 108.552 3.976 107.712 3.976C107.448 3.976 107.136 3.856 106.8 3.52ZM111.469 4.672C110.893 4.792 110.293 4.432 110.149 3.856C110.005 3.256 110.389 2.656 110.965 2.536C111.565 2.392 112.141 2.752 112.285 3.352C112.429 3.928 112.069 4.528 111.469 4.672ZM110.413 19V6.928L112.045 6.592L112.021 19H110.413ZM125.876 16.888C126.212 16.48 126.548 16.336 126.812 16.336C127.412 16.336 127.676 17.08 126.908 17.632C125.588 18.568 123.764 19.12 121.916 19.12C118.628 19.12 115.364 17.32 115.364 12.688C115.364 8.488 118.508 6.592 121.58 6.592C124.436 6.592 127.22 8.272 127.22 11.296C127.22 13.984 124.916 15.472 122.54 15.472C121.196 15.472 119.852 14.992 118.868 14.008L119.108 13.648C119.924 14.344 120.932 14.656 121.892 14.656C123.74 14.656 125.444 13.408 125.444 11.056C125.444 8.608 123.476 7.168 121.46 7.168C119.372 7.168 117.236 8.728 117.236 12.376C117.236 16.648 119.804 18.52 122.3 18.52C123.668 18.52 125.012 17.944 125.876 16.888ZM130.748 0.831999L132.38 0.495999L132.356 19H130.748V0.831999ZM148.348 14.728C148.348 16.84 148.612 18.424 148.924 18.784L147.148 19.144C146.908 18.472 146.788 17.752 146.788 17.056C145.804 18.352 143.812 19.144 141.796 19.144C138.796 19.144 135.724 17.392 135.724 12.976C135.724 8.632 138.916 6.52 142.396 6.52C143.86 6.52 145.396 6.904 146.74 7.624V0.831999L148.348 0.519999V14.728ZM146.74 14.104L146.764 11.92L146.74 11.968C146.74 8.896 144.82 7.12 142.348 7.12C139.876 7.12 137.596 8.92 137.596 13C137.596 16.576 139.852 18.28 142.516 18.28C144.796 18.28 146.74 16.864 146.74 14.104Z" fill="url(#paint0_linear_3278_1192)"/>
<defs>
<linearGradient id="paint0_linear_3278_1192" x1="-86" y1="-6.00001" x2="49.716" y2="128.95" gradientUnits="userSpaceOnUse">
<stop stop-color="#FAC59F"/>
<stop offset="1" stop-color="#6B47AB"/>
</linearGradient>
</defs>
</svg>
