<svg width="228" height="76" viewBox="0 0 228 76" fill="none" xmlns="http://www.w3.org/2000/svg">
<path fill-rule="evenodd" clip-rule="evenodd" d="M184.878 73.1981C188.539 74.7811 192.496 75.4737 196.651 75.4737C200.807 75.4737 204.665 74.7811 208.326 73.1981C211.888 71.6151 215.054 69.5374 217.824 66.7672C220.594 63.9969 222.672 60.8309 224.255 57.1703C225.838 53.5096 226.629 49.5521 226.629 45.3967C226.629 41.2414 225.838 37.2839 224.255 33.6232C222.672 29.9625 220.594 26.7965 217.824 24.0263C215.054 21.256 211.888 19.1783 208.326 17.5953C204.665 16.0123 200.807 15.2208 196.651 15.2208C192.496 15.2208 188.539 16.0123 184.878 17.5953C181.217 19.1783 178.051 21.256 175.38 24.0263C172.61 26.7965 170.532 29.9625 168.949 33.6232C167.366 37.2839 166.673 41.2414 166.673 45.3967C166.673 49.5521 167.366 53.5096 168.949 57.1703C170.532 60.8309 172.61 63.9969 175.38 66.7672C178.051 69.5374 181.217 71.6151 184.878 73.1981ZM174.999 67.1408C177.725 69.9675 180.952 72.0819 184.666 73.6881C188.405 75.3049 192.437 76.0075 196.651 76.0075C200.868 76.0075 204.801 75.3042 208.538 73.6881L208.54 73.687L208.543 73.6859C212.158 72.0794 215.38 69.9663 218.202 67.1447C221.024 64.3224 223.138 61.0987 224.745 57.3821C226.358 53.651 227.163 49.6209 227.163 45.3967C227.163 41.1725 226.358 37.1425 224.745 33.4113C223.138 29.6948 221.024 26.471 218.202 23.6488C215.38 20.8271 212.158 18.714 208.543 17.1075L208.54 17.1064L208.538 17.1054C204.808 15.4926 200.878 14.687 196.651 14.687C192.427 14.687 188.397 15.4919 184.666 17.1054C180.952 18.7115 177.725 20.8258 174.999 23.6524C172.178 26.4738 170.066 29.6964 168.459 33.4113C166.842 37.1501 166.14 41.1818 166.14 45.3967C166.14 49.6116 166.842 53.6433 168.459 57.3821C170.065 61.097 172.178 64.3195 174.999 67.1408ZM203.28 61.5235C201.203 62.5129 199.026 62.9086 196.651 62.9086C194.277 62.9086 192.001 62.5129 189.924 61.5235C187.846 60.6331 186.065 59.3469 184.581 57.7639C183.097 56.1809 181.91 54.4 181.118 52.2234C180.228 50.0468 179.832 47.7712 179.832 45.3967C179.832 43.0222 180.228 40.7467 181.118 38.57C181.91 36.3934 183.097 34.5136 184.581 32.9306C186.065 31.3476 187.846 30.1604 189.924 29.171C192.001 28.2806 194.277 27.7859 196.651 27.7859C199.026 27.7859 201.203 28.2806 203.28 29.171C205.259 30.1604 207.04 31.3476 208.623 32.9306C210.107 34.5136 211.294 36.3934 212.185 38.57C212.976 40.7467 213.471 43.0222 213.471 45.3967C213.471 47.7712 212.976 50.0468 212.185 52.2234C211.294 54.4 210.107 56.1809 208.623 57.7639C207.04 59.3469 205.259 60.6331 203.28 61.5235ZM211.687 52.0309C212.46 49.9024 212.937 47.6925 212.937 45.3967C212.937 43.1009 212.46 40.891 211.687 38.7625C210.82 36.6482 209.67 34.8303 208.24 33.3023C206.711 31.7749 204.987 30.6225 203.056 29.6555C201.043 28.7952 198.943 28.3197 196.651 28.3197C194.355 28.3197 192.155 28.7972 190.144 29.6576C188.114 30.6253 186.396 31.7756 184.971 33.2957C183.534 34.8276 182.386 36.6457 181.62 38.7525L181.616 38.7624L181.612 38.7722C180.751 40.8772 180.366 43.083 180.366 45.3967C180.366 47.7104 180.751 49.9163 181.612 52.0213L181.616 52.031L181.62 52.041C182.383 54.1399 183.528 55.8603 184.971 57.3988C186.407 58.9307 188.127 60.1729 190.134 61.0328L190.144 61.037L190.153 61.0415C192.143 61.9888 194.336 62.3748 196.651 62.3748C198.964 62.3748 201.059 61.99 203.051 61.0415L203.056 61.039L203.061 61.0367C204.971 60.1774 206.697 58.9333 208.24 57.3923C209.676 55.8583 210.824 54.1368 211.687 52.0309Z" fill="url(#paint0_linear_4123_46653)"/>
<path fill-rule="evenodd" clip-rule="evenodd" d="M146.859 0.536621H161.383V74.8179H146.859V0.536621ZM147.393 1.07046V74.284H160.849V1.07046H147.393Z" fill="url(#paint1_linear_4123_46653)"/>
<path fill-rule="evenodd" clip-rule="evenodd" d="M125.219 0.536621H139.742V74.8179H125.219V0.536621ZM125.753 1.07046V74.284H139.208V1.07046H125.753Z" fill="url(#paint2_linear_4123_46653)"/>
<path fill-rule="evenodd" clip-rule="evenodd" d="M78.0153 73.1981C81.775 74.7811 85.9303 75.4737 90.4814 75.4737C96.9124 75.4737 102.354 74.0885 106.905 71.2193C111.456 68.3502 114.919 64.5906 117.491 59.8417C117.491 59.8417 117.491 59.8416 117.491 59.8417L106.509 53.5096C106.437 53.6742 106.363 53.837 106.288 53.9979C104.906 56.931 102.902 59.2416 100.276 60.9299C97.506 62.8097 94.2411 63.7001 90.4814 63.7001C85.7324 63.7001 81.775 62.5129 78.7079 59.9405C75.6787 57.574 73.7364 54.4829 72.7943 50.5806C72.7517 50.4043 72.7112 50.2264 72.6727 50.0468H119.767V45.001C119.767 40.7467 118.975 36.7892 117.491 33.1285C116.007 29.5668 113.93 26.4008 111.357 23.7295C108.686 21.0581 105.52 18.9805 101.859 17.4964C98.1985 16.0123 94.2411 15.2208 89.9867 15.2208C85.7324 15.2208 81.775 16.0123 78.1143 17.5953C74.4536 19.1783 71.2876 21.355 68.6163 24.0263C65.8461 26.7965 63.7684 29.9625 62.1854 33.6232C60.6024 37.3828 59.9098 41.3403 59.9098 45.4957C59.9098 49.651 60.6024 53.6085 62.0864 57.2692C63.5705 60.9299 65.6482 64.0959 68.3195 66.7672C70.9908 69.5374 74.2557 71.6151 78.0153 73.1981ZM67.9386 67.1412C70.6691 69.9718 73.9976 72.0856 77.8082 73.6901C81.6476 75.3067 85.8765 76.0075 90.4814 76.0075C96.9907 76.0075 102.536 74.6047 107.19 71.6709C111.821 68.7513 115.346 64.9226 117.961 60.0958L118.208 59.6387L106.259 52.7492L106.02 53.2956C104.675 56.3702 102.665 58.7597 99.9875 60.4808L99.982 60.4844L99.9765 60.4881C97.3093 62.298 94.1534 63.1663 90.4814 63.1663C85.8223 63.1663 81.9977 62.003 79.0509 59.5315L79.0438 59.5255L79.0365 59.5198C76.1413 57.2579 74.2706 54.3146 73.3439 50.5806H120.301V45.001C120.301 40.6788 119.496 36.6531 117.986 32.9279L117.985 32.9255L117.984 32.9232C116.475 29.3014 114.361 26.0792 111.742 23.3592L111.738 23.3555L111.735 23.352C109.011 20.6278 105.784 18.5113 102.06 17.0017C98.3346 15.4915 94.3089 14.687 89.9867 14.687C85.6645 14.687 81.6343 15.4915 77.9024 17.1054C74.1798 18.7151 70.9576 20.93 68.2388 23.6488C65.4166 26.471 63.3025 29.6948 61.6954 33.4113L61.6944 33.4137L61.6934 33.416C60.079 37.2502 59.376 41.2796 59.376 45.4957C59.376 49.7107 60.0786 53.7374 61.5917 57.4698C63.1007 61.192 65.2161 64.4178 67.9386 67.1412ZM79.4994 30.2593C82.4675 28.0827 85.9303 26.9944 89.9867 26.9944C94.1421 26.9944 97.6049 28.0827 100.474 30.0614C103.115 31.9479 105.037 34.7337 106.068 38.333C106.118 38.509 106.166 38.687 106.212 38.8669H73.3653C73.4252 38.6872 73.4871 38.5092 73.5511 38.333C74.7547 35.0173 76.681 32.3261 79.4994 30.2593ZM74.12 38.333C75.2946 35.1915 77.1413 32.6506 79.8151 30.6898C82.6834 28.5863 86.0332 27.5282 89.9867 27.5282C94.0415 27.5282 97.3955 28.5878 100.167 30.4984C102.662 32.2813 104.501 34.9094 105.512 38.333H74.12Z" fill="url(#paint3_linear_4123_46653)"/>
<path fill-rule="evenodd" clip-rule="evenodd" d="M0 0.536621H14.4242V21.8804C16.251 19.8628 18.394 18.2071 20.973 16.9176L20.9794 16.9144L20.986 16.9114C24.0235 15.4938 27.3654 14.6847 31.2044 14.6847C38.4431 14.6847 44.2365 16.9009 48.4143 21.3844C52.587 25.8625 54.6917 32.141 54.6917 39.9528V74.8179H39.9707V41.4369C39.9707 36.9676 38.9024 33.5432 36.8321 31.0965C34.779 28.6701 31.6788 27.328 27.4448 27.328C25.6401 27.328 23.9319 27.7079 22.4151 28.3715L22.4097 28.3739L22.4044 28.3761C20.7889 29.0413 19.3743 29.9862 18.2467 31.2055C17.1002 32.5447 16.1494 34.0686 15.4825 35.9738C14.8156 37.8792 14.5231 40.0912 14.5231 42.5252V74.8179H0V0.536621ZM17.8479 30.8506C19.0351 29.5644 20.5192 28.575 22.2011 27.8825C23.7841 27.1899 25.565 26.7941 27.4448 26.7941C31.798 26.7941 35.063 28.1793 37.2396 30.7516C39.4162 33.324 40.5045 36.8858 40.5045 41.4369V74.284H54.1578V39.9528C54.1578 32.2357 52.0802 26.1016 48.0237 21.7483C43.9673 17.3951 38.3279 15.2185 31.2044 15.2185C27.4448 15.2185 24.1798 16.01 21.2117 17.3951C18.5058 18.7481 16.2933 20.5122 14.4242 22.6874C14.2431 22.8982 14.0652 23.1128 13.8904 23.3313V1.07046H0.533834V74.284H13.9893V42.5252C13.9893 40.0517 14.2861 37.7762 14.9787 35.7974C15.6712 33.8187 16.6606 32.2357 17.8479 30.8506Z" fill="url(#paint4_linear_4123_46653)"/>
<defs>
<linearGradient id="paint0_linear_4123_46653" x1="110.72" y1="1.15279" x2="112.414" y2="67.7999" gradientUnits="userSpaceOnUse">
<stop stop-color="#283878"/>
<stop offset="1" stop-color="white" stop-opacity="0"/>
</linearGradient>
<linearGradient id="paint1_linear_4123_46653" x1="110.719" y1="1.15043" x2="112.413" y2="67.7976" gradientUnits="userSpaceOnUse">
<stop stop-color="#283878"/>
<stop offset="1" stop-color="white" stop-opacity="0"/>
</linearGradient>
<linearGradient id="paint2_linear_4123_46653" x1="110.721" y1="1.15043" x2="112.415" y2="67.7976" gradientUnits="userSpaceOnUse">
<stop stop-color="#283878"/>
<stop offset="1" stop-color="white" stop-opacity="0"/>
</linearGradient>
<linearGradient id="paint3_linear_4123_46653" x1="110.72" y1="1.15279" x2="112.414" y2="67.7999" gradientUnits="userSpaceOnUse">
<stop stop-color="#283878"/>
<stop offset="1" stop-color="white" stop-opacity="0"/>
</linearGradient>
<linearGradient id="paint4_linear_4123_46653" x1="110.72" y1="1.15043" x2="112.414" y2="67.7976" gradientUnits="userSpaceOnUse">
<stop stop-color="#283878"/>
<stop offset="1" stop-color="white" stop-opacity="0"/>
</linearGradient>
</defs>
</svg>
