<svg width="350" height="117" viewBox="0 0 350 117" fill="none" xmlns="http://www.w3.org/2000/svg">
<path fill-rule="evenodd" clip-rule="evenodd" d="M284.396 111.771C290.027 114.207 296.115 115.272 302.507 115.272C308.899 115.272 314.835 114.207 320.466 111.771C325.945 109.336 330.815 106.14 335.077 101.879C339.338 97.6174 342.534 92.7472 344.969 87.1161C347.404 81.4849 348.622 75.3971 348.622 69.005C348.622 62.6128 347.404 56.5251 344.969 50.8939C342.534 45.2627 339.338 40.3925 335.077 36.1311C330.815 31.8697 325.945 28.6736 320.466 26.2385C314.835 23.8034 308.899 22.5858 302.507 22.5858C296.115 22.5858 290.027 23.8034 284.396 26.2385C278.765 28.6736 273.895 31.8697 269.786 36.1311C265.524 40.3925 262.328 45.2627 259.893 50.8939C257.458 56.5251 256.392 62.6128 256.392 69.005C256.392 75.3971 257.458 81.4849 259.893 87.1161C262.328 92.7472 265.524 97.6174 269.786 101.879C273.895 106.14 278.765 109.336 284.396 111.771ZM269.199 102.454C273.393 106.802 278.357 110.054 284.07 112.525C289.822 115.012 296.023 116.093 302.507 116.093C308.994 116.093 315.043 115.011 320.792 112.525L320.796 112.524L320.8 112.522C326.36 110.051 331.317 106.8 335.657 102.46C339.999 98.1181 343.251 93.159 345.723 87.442C348.205 81.7024 349.443 75.503 349.443 69.005C349.443 62.5069 348.205 56.3076 345.723 50.568C343.251 44.8509 339.999 39.8918 335.657 35.5504C331.317 31.2099 326.36 27.9594 320.8 25.4881L320.796 25.4864L320.792 25.4848C315.055 23.0038 309.008 21.7646 302.507 21.7646C296.009 21.7646 289.81 23.0028 284.07 25.4848C278.357 27.9555 273.394 31.2079 269.199 35.556C264.861 39.8961 261.61 44.8534 259.139 50.568C256.652 56.3193 255.571 62.5212 255.571 69.005C255.571 75.4887 256.652 81.6906 259.139 87.442C261.61 93.1565 264.86 98.1136 269.199 102.454ZM312.704 93.8126C309.508 95.3345 306.16 95.9433 302.507 95.9433C298.855 95.9433 295.354 95.3345 292.158 93.8126C288.962 92.4428 286.222 90.4643 283.94 88.0292C281.657 85.5941 279.83 82.8546 278.613 79.5064C277.243 76.1581 276.634 72.6576 276.634 69.005C276.634 65.3523 277.243 61.8519 278.613 58.5036C279.83 55.1553 281.657 52.2637 283.94 49.8285C286.222 47.3934 288.962 45.5671 292.158 44.0452C295.354 42.6754 298.855 41.9145 302.507 41.9145C306.16 41.9145 309.508 42.6754 312.704 44.0452C315.748 45.5671 318.488 47.3934 320.923 49.8285C323.206 52.2637 325.032 55.1553 326.402 58.5036C327.619 61.8519 328.38 65.3523 328.38 69.005C328.38 72.6576 327.619 76.1581 326.402 79.5064C325.032 82.8546 323.206 85.5941 320.923 88.0292C318.488 90.4643 315.748 92.4428 312.704 93.8126ZM325.635 79.2103C326.825 75.936 327.559 72.5366 327.559 69.005C327.559 65.4734 326.825 62.0739 325.635 58.7996C324.303 55.5473 322.534 52.7507 320.333 50.4002C317.981 48.0507 315.329 46.278 312.359 44.7905C309.263 43.467 306.032 42.7356 302.507 42.7356C298.975 42.7356 295.59 43.4702 292.496 44.7937C289.373 46.2823 286.731 48.0518 284.539 50.3902C282.329 52.7466 280.563 55.5434 279.385 58.7842L279.379 58.7995L279.373 58.8145C278.048 62.0526 277.455 65.4458 277.455 69.005C277.455 72.5641 278.048 75.9573 279.373 79.1954L279.379 79.2105L279.385 79.2257C280.559 82.4545 282.32 85.1009 284.539 87.4676C286.748 89.8241 289.395 91.7349 292.482 93.0578L292.496 93.0642L292.511 93.0712C295.571 94.5284 298.945 95.1221 302.507 95.1221C306.064 95.1221 309.287 94.5302 312.351 93.0712L312.359 93.0674L312.367 93.0637C315.305 91.7419 317.961 89.8281 320.333 87.4576C322.543 85.0978 324.308 82.4498 325.635 79.2103Z" fill="url(#paint0_linear_3278_1131)"/>
<path fill-rule="evenodd" clip-rule="evenodd" d="M225.912 0H248.253V114.266H225.912V0ZM226.733 0.821191V113.445H247.432V0.821191H226.733Z" fill="url(#paint1_linear_3278_1131)"/>
<path fill-rule="evenodd" clip-rule="evenodd" d="M192.62 0H214.961V114.266H192.62V0ZM193.441 0.821191V113.445H214.14V0.821191H193.441Z" fill="url(#paint2_linear_3278_1131)"/>
<path fill-rule="evenodd" clip-rule="evenodd" d="M120.009 111.771C125.792 114.207 132.184 115.272 139.185 115.272C149.078 115.272 157.448 113.141 164.449 108.728C171.45 104.314 176.777 98.5307 180.734 91.2255C180.734 91.2255 180.734 91.2254 180.734 91.2255L163.84 81.4849C163.73 81.7382 163.616 81.9886 163.499 82.2361C161.374 86.748 158.292 90.3024 154.252 92.8994C149.991 95.7911 144.968 97.1608 139.185 97.1608C131.88 97.1608 125.792 95.3345 121.074 91.3775C116.414 87.7371 113.426 82.9821 111.977 76.9793C111.912 76.7081 111.849 76.4344 111.79 76.1581H184.234V68.3962C184.234 61.8519 183.017 55.7641 180.734 50.1329C178.451 44.6539 175.255 39.7837 171.298 35.6745C167.189 31.5653 162.319 28.3692 156.687 26.0863C151.056 23.8034 144.968 22.5858 138.424 22.5858C131.88 22.5858 125.792 23.8034 120.161 26.2385C114.53 28.6736 109.659 32.0219 105.55 36.1311C101.289 40.3925 98.0927 45.2627 95.6576 50.8939C93.2225 56.6773 92.1571 62.765 92.1571 69.1572C92.1571 75.5493 93.2225 81.6371 95.5054 87.2682C97.7883 92.8994 100.984 97.7696 105.094 101.879C109.203 106.14 114.225 109.336 120.009 111.771ZM104.508 102.454C108.708 106.808 113.828 110.06 119.69 112.528C125.596 115.015 132.101 116.093 139.185 116.093C149.198 116.093 157.729 113.935 164.887 109.422C172.011 104.931 177.434 99.0413 181.456 91.6164L181.837 90.9133L163.456 80.3152L163.088 81.1557C161.019 85.8854 157.927 89.5611 153.808 92.2086L153.8 92.2142L153.791 92.2199C149.688 95.004 144.834 96.3397 139.185 96.3397C132.018 96.3397 126.135 94.5502 121.602 90.7483L121.591 90.7391L121.58 90.7304C117.126 87.2509 114.248 82.7232 112.823 76.9793H185.056V68.3962C185.056 61.7475 183.818 55.5548 181.495 49.8244L181.494 49.8207L181.492 49.8171C179.171 44.2458 175.919 39.2891 171.889 35.1049L171.884 35.0993L171.879 35.0938C167.688 30.9033 162.724 27.6476 156.996 25.3253C151.265 23.0021 145.073 21.7646 138.424 21.7646C131.775 21.7646 125.576 23.0022 119.835 25.4848C114.108 27.961 109.152 31.3681 104.97 35.5504C100.628 39.8918 97.3761 44.8509 94.9039 50.568L94.9023 50.5716L94.9007 50.5752C92.4174 56.4733 91.3359 62.6717 91.3359 69.1572C91.3359 75.6411 92.4168 81.8354 94.7444 87.5768C97.0657 93.3027 100.32 98.2648 104.508 102.454ZM122.292 45.7193C126.857 42.371 132.184 40.6969 138.424 40.6969C144.816 40.6969 150.143 42.371 154.557 45.4149C158.619 48.3169 161.575 52.6022 163.161 58.139C163.239 58.4097 163.313 58.6835 163.384 58.9602H112.856C112.948 58.6837 113.043 58.41 113.141 58.139C114.993 53.0385 117.956 48.8986 122.292 45.7193ZM114.016 58.139C115.823 53.3064 118.664 49.3978 122.777 46.3815C127.189 43.1458 132.342 41.5181 138.424 41.5181C144.661 41.5181 149.821 43.1481 154.085 46.0872C157.922 48.8297 160.751 52.8725 162.306 58.139H114.016Z" fill="url(#paint3_linear_3278_1131)"/>
<path fill-rule="evenodd" clip-rule="evenodd" d="M0 0H22.1886V32.8329C24.9988 29.7292 28.2953 27.1823 32.2625 25.1987L32.2724 25.1937L32.2824 25.189C36.955 23.0085 42.0958 21.7637 48.0013 21.7637C59.1365 21.7637 68.0483 25.1729 74.4751 32.0699C80.8939 38.9585 84.1315 48.6166 84.1315 60.6334V114.266H61.4863V62.9163C61.4863 56.0412 59.843 50.7736 56.6582 47.0098C53.5 43.2774 48.7311 41.2128 42.2179 41.2128C39.4418 41.2128 36.8142 41.7972 34.4808 42.8181L34.4726 42.8217L34.4643 42.8251C31.9794 43.8483 29.8033 45.3019 28.0687 47.1775C26.305 49.2376 24.8423 51.5818 23.8166 54.5125C22.7907 57.4436 22.3407 60.8463 22.3407 64.5904V114.266H0V0ZM27.4551 46.6315C29.2815 44.653 31.5644 43.1311 34.1517 42.0657C36.5868 41.0004 39.3262 40.3916 42.2179 40.3916C48.9145 40.3916 53.9369 42.5223 57.2851 46.4793C60.6334 50.4364 62.3075 55.9154 62.3075 62.9163V113.445H83.3103V60.6334C83.3103 48.7623 80.1142 39.3262 73.8743 32.6297C67.6343 25.9332 58.9593 22.5849 48.0013 22.5849C42.2179 22.5849 37.1955 23.8025 32.6297 25.9332C28.4673 28.0144 25.0638 30.7281 22.1886 34.0742C21.9099 34.3985 21.6363 34.7287 21.3674 35.0648V0.821191H0.82119V113.445H21.5196V64.5904C21.5196 60.7856 21.9761 57.2851 23.0415 54.2412C24.1069 51.1974 25.6288 48.7623 27.4551 46.6315Z" fill="url(#paint4_linear_3278_1131)"/>
<defs>
<linearGradient id="paint0_linear_3278_1131" x1="170.32" y1="0.945135" x2="172.926" y2="103.468" gradientUnits="userSpaceOnUse">
<stop stop-color="#283878"/>
<stop offset="1" stop-color="white" stop-opacity="0"/>
</linearGradient>
<linearGradient id="paint1_linear_3278_1131" x1="170.319" y1="0.944209" x2="172.924" y2="103.467" gradientUnits="userSpaceOnUse">
<stop stop-color="#283878"/>
<stop offset="1" stop-color="white" stop-opacity="0"/>
</linearGradient>
<linearGradient id="paint2_linear_3278_1131" x1="170.319" y1="0.944209" x2="172.925" y2="103.467" gradientUnits="userSpaceOnUse">
<stop stop-color="#283878"/>
<stop offset="1" stop-color="white" stop-opacity="0"/>
</linearGradient>
<linearGradient id="paint3_linear_3278_1131" x1="170.317" y1="0.945135" x2="172.923" y2="103.468" gradientUnits="userSpaceOnUse">
<stop stop-color="#283878"/>
<stop offset="1" stop-color="white" stop-opacity="0"/>
</linearGradient>
<linearGradient id="paint4_linear_3278_1131" x1="170.319" y1="0.94421" x2="172.925" y2="103.467" gradientUnits="userSpaceOnUse">
<stop stop-color="#283878"/>
<stop offset="1" stop-color="white" stop-opacity="0"/>
</linearGradient>
</defs>
</svg>
