<svg width="110" height="37" viewBox="0 0 110 37" fill="none" xmlns="http://www.w3.org/2000/svg">
<path d="M2.40911 27V9.98705H4.18586L4.2102 27H2.40911ZM6.95784 10.4008C6.95784 9.74366 7.44462 9.37858 7.95574 9.37858C8.44252 9.37858 8.95364 9.74366 8.95364 10.5225C8.95364 11.4961 8.17479 12.5913 7.24991 13.1998L7.10387 13.0051C8.39384 11.4474 6.95784 11.5447 6.95784 10.4008ZM31.197 22.6677C31.197 25.7587 31.2457 26.6349 31.5621 27H29.5663V19.7957C29.5663 16.6316 28.471 15.2199 26.4266 15.2199C24.236 15.2199 22.2646 17.0454 22.2646 20.0391V27H20.6339V19.7957C20.6339 16.6316 19.5386 15.2199 17.4941 15.2199C15.3036 15.2199 13.3565 17.0454 13.3565 20.0391L13.3322 20.0147V27H11.7015V18.9681C11.7015 16.8263 11.4581 15.2199 11.1417 14.8305L12.9428 14.4654C13.2105 15.0982 13.3078 16.1692 13.3322 17.094C14.2327 15.439 15.9608 14.3924 17.8349 14.3924C20.0984 14.3924 21.5344 15.366 22.0455 17.5078C22.7757 15.9258 24.4064 14.3924 26.7673 14.3924C29.615 14.3924 31.197 15.9501 31.197 19.5279V22.6677ZM56.5512 27H54.458L52.803 12.7374L48.2516 27H47.4484L42.5076 13.3215L40.6578 27H39.6112L41.9234 9.98705H43.4568L48.2516 23.5682L52.6813 9.98705H54.5554C55.0178 14.0517 55.967 22.0105 56.5512 27ZM60.1646 12.4696C59.5804 12.5913 58.972 12.2262 58.8259 11.6421C58.6799 11.0336 59.0693 10.4252 59.6534 10.3035C60.2619 10.1574 60.8461 10.5225 60.9921 11.131C61.1381 11.7151 60.773 12.3236 60.1646 12.4696ZM59.0936 27V14.7575L60.7487 14.4167L60.7244 27H59.0936ZM74.3415 22.6677C74.3415 25.7587 74.3901 26.6349 74.7065 27H72.7107V19.7957C72.7107 16.6316 71.6155 15.2199 69.571 15.2199C67.3805 15.2199 65.4334 17.0454 65.4334 20.0391L65.409 20.0147V27H63.7783V18.9681C63.7783 16.8263 63.5349 15.2199 63.2185 14.8305L65.0196 14.4654C65.2874 15.0982 65.3847 16.1692 65.409 17.094C66.3096 15.439 68.0377 14.3924 69.9118 14.3924C72.7838 14.3924 74.3415 15.9501 74.3415 19.5279V22.6677ZM78.2241 26.3185H86.5237V27H76.3256V26.4159L84.4549 15.2443H76.5204V14.5628H86.402V15.1469L78.2241 26.3185ZM89.6851 12.4696C89.101 12.5913 88.4925 12.2262 88.3464 11.6421C88.2004 11.0336 88.5898 10.4252 89.174 10.3035C89.7824 10.1574 90.3666 10.5225 90.5126 11.131C90.6586 11.7151 90.2936 12.3236 89.6851 12.4696ZM88.6142 27V14.7575L90.2692 14.4167L90.2449 27H88.6142ZM103.444 24.8582C103.785 24.4444 104.126 24.2984 104.393 24.2984C105.002 24.2984 105.27 25.0529 104.491 25.6127C103.152 26.5619 101.302 27.1217 99.4283 27.1217C96.0938 27.1217 92.7837 25.2963 92.7837 20.5988C92.7837 16.3395 95.9721 14.4167 99.0875 14.4167C101.984 14.4167 104.807 16.1205 104.807 19.1872C104.807 21.9132 102.471 23.4222 100.061 23.4222C98.6981 23.4222 97.3351 22.9354 96.3372 21.9375L96.5806 21.5724C97.4081 22.2782 98.4304 22.5946 99.4039 22.5946C101.278 22.5946 103.006 21.329 103.006 18.9438C103.006 16.4612 101.01 15.0009 98.9658 15.0009C96.8484 15.0009 94.6822 16.5829 94.6822 20.2824C94.6822 24.6148 97.2865 26.5132 99.8177 26.5132C101.205 26.5132 102.568 25.9291 103.444 24.8582Z" fill="url(#paint0_linear_4123_46670)"/>
<defs>
<linearGradient id="paint0_linear_4123_46670" x1="53" y1="4.43229" x2="53" y2="33.724" gradientUnits="userSpaceOnUse">
<stop stop-color="#FAC59F"/>
<stop offset="1" stop-color="#6B47AB"/>
</linearGradient>
</defs>
</svg>
