<svg width="104" height="19" viewBox="0 0 104 19" fill="none" xmlns="http://www.w3.org/2000/svg">
<path d="M0.409112 18V0.98705H2.18586L2.2102 18H0.409112ZM4.95784 1.40081C4.95784 0.743661 5.44462 0.378576 5.95574 0.378576C6.44252 0.378576 6.95364 0.743661 6.95364 1.52251C6.95364 2.49607 6.17479 3.59132 5.24991 4.1998L5.10387 4.00508C6.39384 2.44739 4.95784 2.54475 4.95784 1.40081ZM29.197 13.6677C29.197 16.7587 29.2457 17.6349 29.5621 18H27.5663V10.7957C27.5663 7.63159 26.471 6.21993 24.4266 6.21993C22.236 6.21993 20.2646 8.04536 20.2646 11.0391V18H18.6339V10.7957C18.6339 7.63159 17.5386 6.21993 15.4941 6.21993C13.3036 6.21993 11.3565 8.04536 11.3565 11.0391L11.3322 11.0147V18H9.70147V9.96814C9.70147 7.82631 9.45808 6.21993 9.14167 5.83051L10.9428 5.46542C11.2105 6.09824 11.3078 7.16915 11.3322 8.09403C12.2327 6.43898 13.9608 5.39241 15.8349 5.39241C18.0984 5.39241 19.5344 6.36597 20.0455 8.5078C20.7757 6.92576 22.4064 5.39241 24.7673 5.39241C27.615 5.39241 29.197 6.9501 29.197 10.5279V13.6677ZM54.5512 18H52.458L50.803 3.73736L46.2516 18H45.4484L40.5076 4.32149L38.6578 18H37.6112L39.9234 0.98705H41.4568L46.2516 14.5682L50.6813 0.98705H52.5554C53.0178 5.05166 53.967 13.0105 54.5512 18ZM58.1646 3.46963C57.5804 3.59132 56.972 3.22624 56.8259 2.6421C56.6799 2.03363 57.0693 1.42515 57.6534 1.30346C58.2619 1.15742 58.8461 1.52251 58.9921 2.13098C59.1381 2.71512 58.773 3.32359 58.1646 3.46963ZM57.0936 18V5.75749L58.7487 5.41675L58.7244 18H57.0936ZM72.3415 13.6677C72.3415 16.7587 72.3901 17.6349 72.7065 18H70.7107V10.7957C70.7107 7.63159 69.6155 6.21993 67.571 6.21993C65.3805 6.21993 63.4334 8.04536 63.4334 11.0391L63.409 11.0147V18H61.7783V9.96814C61.7783 7.82631 61.5349 6.21993 61.2185 5.83051L63.0196 5.46542C63.2874 6.09824 63.3847 7.16915 63.409 8.09403C64.3096 6.43898 66.0377 5.39241 67.9118 5.39241C70.7838 5.39241 72.3415 6.9501 72.3415 10.5279V13.6677ZM76.2241 17.3185H84.5237V18H74.3256V17.4159L82.4549 6.24427H74.5204V5.56278H84.402V6.14692L76.2241 17.3185ZM87.6851 3.46963C87.101 3.59132 86.4925 3.22624 86.3464 2.6421C86.2004 2.03363 86.5898 1.42515 87.174 1.30346C87.7824 1.15742 88.3666 1.52251 88.5126 2.13098C88.6586 2.71512 88.2936 3.32359 87.6851 3.46963ZM86.6142 18V5.75749L88.2692 5.41675L88.2449 18H86.6142ZM101.444 15.8582C101.785 15.4444 102.126 15.2984 102.393 15.2984C103.002 15.2984 103.27 16.0529 102.491 16.6127C101.152 17.5619 99.3024 18.1217 97.4283 18.1217C94.0938 18.1217 90.7837 16.2963 90.7837 11.5988C90.7837 7.33953 93.9721 5.41675 97.0875 5.41675C99.9839 5.41675 102.807 7.12047 102.807 10.1872C102.807 12.9132 100.471 14.4222 98.0611 14.4222C96.6981 14.4222 95.3351 13.9354 94.3372 12.9375L94.5806 12.5724C95.4081 13.2782 96.4304 13.5946 97.4039 13.5946C99.278 13.5946 101.006 12.329 101.006 9.9438C101.006 7.46122 99.0103 6.00088 96.9658 6.00088C94.8484 6.00088 92.6822 7.58292 92.6822 11.2824C92.6822 15.6148 95.2865 17.5132 97.8177 17.5132C99.205 17.5132 100.568 16.9291 101.444 15.8582Z" fill="url(#paint0_linear_4123_46671)"/>
<defs>
<linearGradient id="paint0_linear_4123_46671" x1="51" y1="-4.56771" x2="51" y2="24.724" gradientUnits="userSpaceOnUse">
<stop stop-color="#FAC59F"/>
<stop offset="1" stop-color="#6B47AB"/>
</linearGradient>
</defs>
</svg>
