<svg width="252" height="39" viewBox="0 0 252 39" fill="none" xmlns="http://www.w3.org/2000/svg">
<path d="M0.143906 38V1.652H3.93991L3.99191 38H0.143906ZM9.86222 2.536C9.86222 1.132 10.9022 0.351998 11.9942 0.351998C13.0342 0.351998 14.1262 1.132 14.1262 2.796C14.1262 4.876 12.4622 7.216 10.4862 8.516L10.1742 8.1C12.9302 4.772 9.86222 4.98 9.86222 2.536ZM61.6489 28.744C61.6489 35.348 61.7529 37.22 62.4289 38H58.1649V22.608C58.1649 15.848 55.8249 12.832 51.4569 12.832C46.7769 12.832 42.5649 16.732 42.5649 23.128V38H39.0809V22.608C39.0809 15.848 36.7409 12.832 32.3729 12.832C27.6929 12.832 23.5329 16.732 23.5329 23.128L23.4809 23.076V38H19.9969V20.84C19.9969 16.264 19.4769 12.832 18.8009 12L22.6489 11.22C23.2209 12.572 23.4289 14.86 23.4809 16.836C25.4049 13.3 29.0969 11.064 33.1009 11.064C37.9369 11.064 41.0049 13.144 42.0969 17.72C43.6569 14.34 47.1409 11.064 52.1849 11.064C58.2689 11.064 61.6489 14.392 61.6489 22.036V28.744ZM115.818 38H111.346L107.81 7.528L98.0859 38H96.3699L85.8139 8.776L81.8619 38H79.6259L84.5659 1.652H87.8419L98.0859 30.668L107.55 1.652H111.554C112.542 10.336 114.57 27.34 115.818 38ZM123.538 6.956C122.29 7.216 120.99 6.436 120.678 5.188C120.366 3.888 121.198 2.588 122.446 2.328C123.746 2.016 124.994 2.796 125.306 4.096C125.618 5.344 124.838 6.644 123.538 6.956ZM121.25 38V11.844L124.786 11.116L124.734 38H121.25ZM153.827 28.744C153.827 35.348 153.931 37.22 154.607 38H150.343V22.608C150.343 15.848 148.003 12.832 143.635 12.832C138.955 12.832 134.795 16.732 134.795 23.128L134.743 23.076V38H131.259V20.84C131.259 16.264 130.739 12.832 130.063 12L133.911 11.22C134.483 12.572 134.691 14.86 134.743 16.836C136.667 13.3 140.359 11.064 144.363 11.064C150.499 11.064 153.827 14.392 153.827 22.036V28.744ZM162.122 36.544H179.854V38H158.066V36.752L175.434 12.884H158.482V11.428H179.594V12.676L162.122 36.544ZM186.608 6.956C185.36 7.216 184.06 6.436 183.748 5.188C183.436 3.888 184.268 2.588 185.516 2.328C186.816 2.016 188.064 2.796 188.376 4.096C188.688 5.344 187.908 6.644 186.608 6.956ZM184.32 38V11.844L187.856 11.116L187.804 38H184.32ZM216.004 33.424C216.732 32.54 217.46 32.228 218.032 32.228C219.332 32.228 219.904 33.84 218.24 35.036C215.38 37.064 211.428 38.26 207.424 38.26C200.3 38.26 193.228 34.36 193.228 24.324C193.228 15.224 200.04 11.116 206.696 11.116C212.884 11.116 218.916 14.756 218.916 21.308C218.916 27.132 213.924 30.356 208.776 30.356C205.864 30.356 202.952 29.316 200.82 27.184L201.34 26.404C203.108 27.912 205.292 28.588 207.372 28.588C211.376 28.588 215.068 25.884 215.068 20.788C215.068 15.484 210.804 12.364 206.436 12.364C201.912 12.364 197.284 15.744 197.284 23.648C197.284 32.904 202.848 36.96 208.256 36.96C211.22 36.96 214.132 35.712 216.004 33.424ZM251.313 21.464H236.077V19.852H251.313V21.464Z" fill="url(#paint0_linear_3278_1129)"/>
<defs>
<linearGradient id="paint0_linear_3278_1129" x1="124.5" y1="-9.65625" x2="124.5" y2="52.0938" gradientUnits="userSpaceOnUse">
<stop stop-color="#FAC59F"/>
<stop offset="1" stop-color="#6B47AB"/>
</linearGradient>
</defs>
</svg>
