<svg width="263" height="36" viewBox="0 0 263 36" fill="none" xmlns="http://www.w3.org/2000/svg">
<path d="M11.2784 33.8C15.2144 33.8 20.6384 33.752 22.8464 33.368L22.6064 35H0.718429V1.448H4.22243L4.27043 33.704C6.52643 33.8 9.11843 33.8 11.2784 33.8ZM43.5356 30.776C44.2076 29.96 44.8796 29.672 45.4076 29.672C46.6076 29.672 47.1356 31.16 45.5996 32.264C42.9596 34.136 39.3116 35.24 35.6156 35.24C29.0396 35.24 22.5116 31.64 22.5116 22.376C22.5116 13.976 28.7996 10.184 34.9436 10.184C40.6556 10.184 46.2236 13.544 46.2236 19.592C46.2236 24.968 41.6156 27.944 36.8636 27.944C34.1756 27.944 31.4876 26.984 29.5196 25.016L29.9996 24.296C31.6316 25.688 33.6476 26.312 35.5676 26.312C39.2636 26.312 42.6716 23.816 42.6716 19.112C42.6716 14.216 38.7356 11.336 34.7036 11.336C30.5276 11.336 26.2556 14.456 26.2556 21.752C26.2556 30.296 31.3916 34.04 36.3836 34.04C39.1196 34.04 41.8076 32.888 43.5356 30.776ZM59.3347 33.416L59.7187 34.424C58.3267 35.096 56.8387 35.528 55.4467 35.528C53.1907 35.528 51.3187 34.28 51.3187 30.728L51.2707 11.624H49.0627V10.808H49.3507C51.7027 10.808 53.1907 8.648 53.3347 5.672H54.5347V10.472H57.9427V11.624H54.5347V30.104C54.5347 32.408 55.2547 33.8 57.1747 33.8C57.7987 33.8 58.5187 33.704 59.3347 33.416ZM61.1073 2.264C61.1073 0.967998 62.0673 0.247998 63.0753 0.247998C64.0353 0.247998 65.0433 0.967998 65.0433 2.504C65.0433 4.424 63.5073 6.584 61.6833 7.784L61.3953 7.4C63.9393 4.328 61.1073 4.52 61.1073 2.264ZM72.5744 14.168C72.5744 20.84 87.9344 18.488 87.9344 27.56C87.9344 32.984 82.9904 35.24 77.8064 35.24C74.8784 35.24 71.8544 34.52 69.5984 33.272C66.9104 31.832 67.7264 29.432 69.4544 29.432C70.1264 29.432 70.9904 29.816 71.8064 30.872C73.4864 33.032 75.9344 33.944 78.2384 33.944C81.6944 33.944 84.8144 31.976 84.8144 29.144C84.8144 20.696 69.7424 23.912 69.7424 15.416C69.7424 11.288 73.2944 9.896 77.3264 9.896C79.1984 9.896 81.1664 10.184 82.9424 10.664C86.6384 11.672 85.9184 14.36 84.1424 14.36C83.5664 14.36 82.8944 14.072 82.2224 13.4C80.6384 11.768 78.5744 11.096 76.7984 11.096C74.4944 11.096 72.5744 12.248 72.5744 14.168ZM115.314 0.871999C126.93 0.679998 134.802 5.336 134.802 17.576C134.802 30.488 126.93 35.432 115.65 35.432C112.674 35.432 106.914 35.144 103.602 35.048V1.496C107.106 1.352 111.186 0.919998 115.314 0.871999ZM115.794 33.8C123.57 33.8 130.914 28.808 130.914 17.672C130.914 6.68 123.954 2.264 113.394 2.264C109.938 2.264 107.154 2.456 107.154 4.52L107.106 33.512C108.69 33.752 113.682 33.8 115.794 33.8ZM141.221 6.344C140.069 6.584 138.869 5.864 138.581 4.712C138.293 3.512 139.061 2.312 140.213 2.072C141.413 1.784 142.565 2.504 142.853 3.704C143.141 4.856 142.421 6.056 141.221 6.344ZM139.109 35V10.856L142.373 10.184L142.325 35H139.109ZM150.413 14.168C150.413 20.84 165.773 18.488 165.773 27.56C165.773 32.984 160.829 35.24 155.645 35.24C152.717 35.24 149.693 34.52 147.437 33.272C144.749 31.832 145.565 29.432 147.293 29.432C147.965 29.432 148.829 29.816 149.645 30.872C151.325 33.032 153.773 33.944 156.077 33.944C159.533 33.944 162.653 31.976 162.653 29.144C162.653 20.696 147.581 23.912 147.581 15.416C147.581 11.288 151.133 9.896 155.165 9.896C157.037 9.896 159.005 10.184 160.781 10.664C164.477 11.672 163.757 14.36 161.981 14.36C161.405 14.36 160.733 14.072 160.061 13.4C158.477 11.768 156.413 11.096 154.637 11.096C152.333 11.096 150.413 12.248 150.413 14.168ZM191.52 28.52L192.288 29C189.936 33.128 185.424 35.24 181.008 35.24C174.816 35.24 168.768 31.112 168.768 22.424C168.768 13.448 174.432 10.184 181.296 10.184C183.456 10.184 185.76 10.52 188.016 11.096C191.328 11.912 190.464 15.128 188.352 15.128C187.68 15.128 186.816 14.792 185.952 13.88C184.368 12.296 182.16 11.336 180 11.336C176.208 11.336 172.512 14.216 172.512 21.512C172.512 29.816 177.552 33.32 182.64 33.32C186.192 33.32 189.744 31.544 191.52 28.52ZM215.649 26.456C215.649 30.68 216.177 33.848 216.801 34.568L213.201 35.288C212.721 34.088 212.529 32.12 212.481 30.296C210.849 33.608 207.729 35.288 204.081 35.288C199.185 35.288 195.441 31.976 195.441 25.208V10.472H198.657V24.728C198.657 30.44 201.105 33.08 204.897 33.08C208.977 33.08 212.433 29.816 212.433 23.912V10.472H215.649V26.456ZM224.331 14.168C224.331 20.84 239.691 18.488 239.691 27.56C239.691 32.984 234.747 35.24 229.563 35.24C226.635 35.24 223.611 34.52 221.355 33.272C218.667 31.832 219.483 29.432 221.211 29.432C221.883 29.432 222.747 29.816 223.563 30.872C225.243 33.032 227.691 33.944 229.995 33.944C233.451 33.944 236.571 31.976 236.571 29.144C236.571 20.696 221.499 23.912 221.499 15.416C221.499 11.288 225.051 9.896 229.083 9.896C230.955 9.896 232.923 10.184 234.699 10.664C238.395 11.672 237.675 14.36 235.899 14.36C235.323 14.36 234.651 14.072 233.979 13.4C232.395 11.768 230.331 11.096 228.555 11.096C226.251 11.096 224.331 12.248 224.331 14.168ZM246.814 14.168C246.814 20.84 262.174 18.488 262.174 27.56C262.174 32.984 257.23 35.24 252.046 35.24C249.118 35.24 246.094 34.52 243.838 33.272C241.15 31.832 241.966 29.432 243.694 29.432C244.366 29.432 245.23 29.816 246.046 30.872C247.726 33.032 250.174 33.944 252.478 33.944C255.934 33.944 259.054 31.976 259.054 29.144C259.054 20.696 243.982 23.912 243.982 15.416C243.982 11.288 247.534 9.896 251.566 9.896C253.438 9.896 255.406 10.184 257.182 10.664C260.878 11.672 260.158 14.36 258.382 14.36C257.806 14.36 257.134 14.072 256.462 13.4C254.878 11.768 252.814 11.096 251.038 11.096C248.734 11.096 246.814 12.248 246.814 14.168Z" fill="url(#paint0_linear_3278_1483)"/>
<defs>
<linearGradient id="paint0_linear_3278_1483" x1="66.68" y1="-15" x2="123.716" y2="71.7371" gradientUnits="userSpaceOnUse">
<stop stop-color="#FAC59F"/>
<stop offset="1" stop-color="#6B47AB"/>
</linearGradient>
</defs>
</svg>
