<svg width="395" height="78" viewBox="0 0 395 78" fill="none" xmlns="http://www.w3.org/2000/svg">
<g clip-path="url(#clip0_3410_42712)">
<path d="M3.64 20.86C6.604 20.652 9.724 20.496 12.74 20.496C21.32 20.496 28.808 22.108 28.808 30.324C28.808 38.644 21.996 41.244 15.08 41.244C12.428 41.244 9.776 40.88 7.488 40.308L7.436 57H3.64V20.86ZM7.488 38.28C9.308 38.8 12.012 39.32 14.716 39.32C19.76 39.32 24.856 37.5 24.856 30.324C24.856 26.008 21.372 22.16 14.872 22.16C9.776 22.16 7.592 22.628 7.488 25.8V38.28ZM43.5801 30.012C47.5321 30.012 46.8041 34.016 43.4761 33.132C42.9561 32.976 42.4361 32.924 41.9161 32.924C39.2641 32.924 37.1841 35.108 37.1841 42.232V57H33.7001V39.84C33.7001 35.264 33.1801 31.832 32.5041 31L36.3521 30.22C36.8721 31.416 37.0801 33.288 37.1841 35.108C38.3281 32.04 40.7721 30.012 43.5801 30.012ZM61.1085 29.804C79.2045 29.804 79.7245 57.26 61.0045 57.26C42.2845 57.26 42.9605 29.804 61.1085 29.804ZM61.8885 55.44C76.9165 55.44 73.3805 31.624 60.5365 31.624C44.8325 31.624 48.7325 55.44 61.8885 55.44ZM106.468 47.744C106.468 52.32 107.04 55.752 107.716 56.532L103.868 57.312C103.348 55.856 103.088 54.296 103.088 52.788C100.956 55.596 96.6404 57.312 92.2724 57.312C85.7724 57.312 79.1164 53.516 79.1164 43.948C79.1164 34.536 86.0324 29.96 93.5724 29.96C96.7444 29.96 100.072 30.792 102.984 32.352V17.636L106.468 16.96V47.744ZM102.984 46.392L103.036 41.66L102.984 41.764C102.984 35.108 98.8244 31.26 93.4684 31.26C88.1124 31.26 83.1724 35.16 83.1724 44C83.1724 51.748 88.0604 55.44 93.8324 55.44C98.7724 55.44 102.984 52.372 102.984 46.392ZM134.899 47.744C134.899 52.32 135.471 55.752 136.147 56.532L132.247 57.312C131.727 56.012 131.519 53.88 131.467 51.904C129.699 55.492 126.319 57.312 122.367 57.312C117.063 57.312 113.007 53.724 113.007 46.392V30.428H116.491V45.872C116.491 52.06 119.143 54.92 123.251 54.92C127.671 54.92 131.415 51.384 131.415 44.988V30.428H134.899V47.744ZM165.26 49.98L166.092 50.5C163.544 54.972 158.656 57.26 153.872 57.26C147.164 57.26 140.612 52.788 140.612 43.376C140.612 33.652 146.748 30.116 154.184 30.116C156.524 30.116 159.02 30.48 161.464 31.104C165.052 31.988 164.116 35.472 161.828 35.472C161.1 35.472 160.164 35.108 159.228 34.12C157.512 32.404 155.12 31.364 152.78 31.364C148.672 31.364 144.668 34.484 144.668 42.388C144.668 51.384 150.128 55.18 155.64 55.18C159.488 55.18 163.336 53.256 165.26 49.98ZM179.76 55.284L180.176 56.376C178.668 57.104 177.056 57.572 175.548 57.572C173.104 57.572 171.076 56.22 171.076 52.372L171.024 31.676H168.632V30.792H168.944C171.492 30.792 173.104 28.452 173.26 25.228H174.56V30.428H178.252V31.676H174.56V51.696C174.56 54.192 175.34 55.7 177.42 55.7C178.096 55.7 178.876 55.596 179.76 55.284ZM223.468 47.744C223.468 52.32 224.04 55.752 224.716 56.532L220.868 57.312C220.348 55.856 220.088 54.296 220.088 52.788C217.956 55.596 213.64 57.312 209.272 57.312C202.772 57.312 196.116 53.516 196.116 43.948C196.116 34.536 203.032 29.96 210.572 29.96C213.744 29.96 217.072 30.792 219.984 32.352V17.636L223.468 16.96V47.744ZM219.984 46.392L220.036 41.66L219.984 41.764C219.984 35.108 215.824 31.26 210.468 31.26C205.112 31.26 200.172 35.16 200.172 44C200.172 51.748 205.06 55.44 210.832 55.44C215.772 55.44 219.984 52.372 219.984 46.392ZM251.899 52.424C252.627 51.54 253.355 51.228 253.927 51.228C255.227 51.228 255.799 52.84 254.135 54.036C251.275 56.064 247.323 57.26 243.319 57.26C236.195 57.26 229.123 53.36 229.123 43.324C229.123 34.224 235.935 30.116 242.591 30.116C248.779 30.116 254.811 33.756 254.811 40.308C254.811 46.132 249.819 49.356 244.671 49.356C241.759 49.356 238.847 48.316 236.715 46.184L237.235 45.404C239.003 46.912 241.187 47.588 243.267 47.588C247.271 47.588 250.963 44.884 250.963 39.788C250.963 34.484 246.699 31.364 242.331 31.364C237.807 31.364 233.179 34.744 233.179 42.648C233.179 51.904 238.743 55.96 244.151 55.96C247.115 55.96 250.027 54.712 251.899 52.424ZM263.963 34.432C263.963 41.66 280.603 39.112 280.603 48.94C280.603 54.816 275.247 57.26 269.631 57.26C266.459 57.26 263.183 56.48 260.739 55.128C257.827 53.568 258.711 50.968 260.583 50.968C261.311 50.968 262.247 51.384 263.131 52.528C264.951 54.868 267.603 55.856 270.099 55.856C273.843 55.856 277.223 53.724 277.223 50.656C277.223 41.504 260.895 44.988 260.895 35.784C260.895 31.312 264.743 29.804 269.111 29.804C271.139 29.804 273.271 30.116 275.195 30.636C279.199 31.728 278.419 34.64 276.495 34.64C275.871 34.64 275.143 34.328 274.415 33.6C272.699 31.832 270.463 31.104 268.539 31.104C266.043 31.104 263.963 32.352 263.963 34.432ZM287.858 25.956C286.61 26.216 285.31 25.436 284.998 24.188C284.686 22.888 285.518 21.588 286.766 21.328C288.066 21.016 289.314 21.796 289.626 23.096C289.938 24.344 289.158 25.644 287.858 25.956ZM285.57 57V30.844L289.106 30.116L289.054 57H285.57ZM318.769 26.008C319.289 25.696 319.757 25.592 320.173 25.592C321.941 25.592 322.409 27.932 320.537 28.4C315.961 29.648 317.053 34.12 317.677 36.356C317.989 37.396 318.145 38.488 318.145 39.632C318.145 43.272 316.585 46.236 313.517 47.952H313.465C313.309 48.056 313.101 48.16 312.893 48.264L304.573 52.372C305.145 52.32 305.717 52.268 306.289 52.268C315.025 52.268 320.017 56.584 320.017 63.448C320.017 70.312 315.337 74.992 306.185 74.992C297.189 74.992 292.353 70.312 292.353 63.656C292.353 59.288 294.485 55.752 298.489 53.828L307.121 49.564C307.069 49.564 306.965 49.564 306.913 49.564L306.445 49.616C300.153 49.616 294.225 46.86 294.225 39.788C294.225 34.016 298.489 29.96 306.289 29.96C310.605 29.96 313.829 31.156 315.857 33.288C315.441 30.376 316.065 27.568 318.769 26.008ZM306.965 48.264C319.861 48.264 316.585 31.312 305.561 31.312C292.301 31.312 296.201 48.264 306.965 48.264ZM305.457 53.828C290.117 53.828 294.641 73.432 307.121 73.484C321.993 73.484 318.197 53.828 305.457 53.828ZM345.163 47.744C345.163 54.348 345.267 56.22 345.943 57H341.679V41.608C341.679 34.848 339.339 31.832 334.971 31.832C330.291 31.832 326.131 35.732 326.131 42.128L326.079 42.076V57H322.595V39.84C322.595 35.264 322.075 31.832 321.399 31L325.247 30.22C325.819 31.572 326.027 33.86 326.079 35.836C328.003 32.3 331.695 30.064 335.699 30.064C341.835 30.064 345.163 33.392 345.163 41.036V47.744ZM373.114 52.424C373.842 51.54 374.57 51.228 375.142 51.228C376.442 51.228 377.014 52.84 375.35 54.036C372.49 56.064 368.538 57.26 364.534 57.26C357.41 57.26 350.338 53.36 350.338 43.324C350.338 34.224 357.15 30.116 363.806 30.116C369.994 30.116 376.026 33.756 376.026 40.308C376.026 46.132 371.034 49.356 365.886 49.356C362.974 49.356 360.062 48.316 357.93 46.184L358.45 45.404C360.218 46.912 362.402 47.588 364.482 47.588C368.486 47.588 372.178 44.884 372.178 39.788C372.178 34.484 367.914 31.364 363.546 31.364C359.022 31.364 354.394 34.744 354.394 42.648C354.394 51.904 359.958 55.96 365.366 55.96C368.33 55.96 371.242 54.712 373.114 52.424ZM391.99 30.012C395.942 30.012 395.214 34.016 391.886 33.132C391.366 32.976 390.846 32.924 390.326 32.924C387.674 32.924 385.594 35.108 385.594 42.232V57H382.11V39.84C382.11 35.264 381.59 31.832 380.914 31L384.762 30.22C385.282 31.416 385.49 33.288 385.594 35.108C386.738 32.04 389.182 30.012 391.99 30.012ZM31.772 119.92C31.772 130.788 26.52 135.468 17.056 135.468C7.54 135.468 3.12 129.384 3.12 119.92V98.652H6.916L6.968 119.92H6.916C6.916 128.084 10.92 133.024 18.2 133.024C25.428 133.024 29.588 128.344 29.588 119.92V98.652H31.772V119.92ZM66.6055 135H62.2895L50.4335 118.88L38.4215 135H36.0295L49.1335 117.112L35.5615 98.652H39.9295L51.3175 114.148L59.8455 102.5C60.6255 101.46 62.2375 99.692 61.7695 98.652H65.4095L52.6175 115.916L66.6055 135ZM92.5052 95.22H94.4812L70.5092 136.196H68.5332L92.5052 95.22ZM126.073 119.92C126.073 130.788 120.821 135.468 111.357 135.468C101.841 135.468 97.4208 129.384 97.4208 119.92V98.652H101.217L101.269 119.92H101.217C101.217 128.084 105.221 133.024 112.501 133.024C119.729 133.024 123.889 128.344 123.889 119.92V98.652H126.073V119.92ZM132.878 135V98.652H136.674L136.726 135H132.878ZM182.793 125.744C182.793 130.32 183.365 133.752 184.041 134.532L180.193 135.312C179.673 133.856 179.413 132.296 179.413 130.788C177.281 133.596 172.965 135.312 168.597 135.312C162.097 135.312 155.441 131.516 155.441 121.948C155.441 112.536 162.357 107.96 169.897 107.96C173.069 107.96 176.397 108.792 179.309 110.352V95.636L182.793 94.96V125.744ZM179.309 124.392L179.361 119.66L179.309 119.764C179.309 113.108 175.149 109.26 169.793 109.26C164.437 109.26 159.497 113.16 159.497 122C159.497 129.748 164.385 133.44 170.157 133.44C175.097 133.44 179.309 130.372 179.309 124.392ZM211.223 130.424C211.951 129.54 212.679 129.228 213.251 129.228C214.551 129.228 215.123 130.84 213.459 132.036C210.599 134.064 206.647 135.26 202.643 135.26C195.519 135.26 188.447 131.36 188.447 121.324C188.447 112.224 195.259 108.116 201.915 108.116C208.103 108.116 214.135 111.756 214.135 118.308C214.135 124.132 209.143 127.356 203.995 127.356C201.083 127.356 198.171 126.316 196.039 124.184L196.559 123.404C198.327 124.912 200.511 125.588 202.591 125.588C206.595 125.588 210.287 122.884 210.287 117.788C210.287 112.484 206.023 109.364 201.655 109.364C197.131 109.364 192.503 112.744 192.503 120.648C192.503 129.904 198.067 133.96 203.475 133.96C206.439 133.96 209.351 132.712 211.223 130.424ZM223.288 112.432C223.288 119.66 239.928 117.112 239.928 126.94C239.928 132.816 234.572 135.26 228.956 135.26C225.784 135.26 222.508 134.48 220.064 133.128C217.152 131.568 218.036 128.968 219.908 128.968C220.636 128.968 221.572 129.384 222.456 130.528C224.276 132.868 226.928 133.856 229.424 133.856C233.168 133.856 236.548 131.724 236.548 128.656C236.548 119.504 220.22 122.988 220.22 113.784C220.22 109.312 224.068 107.804 228.436 107.804C230.464 107.804 232.596 108.116 234.52 108.636C238.524 109.728 237.744 112.64 235.82 112.64C235.196 112.64 234.468 112.328 233.74 111.6C232.024 109.832 229.788 109.104 227.864 109.104C225.368 109.104 223.288 110.352 223.288 112.432ZM247.182 103.956C245.934 104.216 244.634 103.436 244.322 102.188C244.01 100.888 244.842 99.588 246.09 99.328C247.39 99.016 248.638 99.796 248.95 101.096C249.262 102.344 248.482 103.644 247.182 103.956ZM244.894 135V108.844L248.43 108.116L248.378 135H244.894ZM278.093 104.008C278.613 103.696 279.081 103.592 279.497 103.592C281.265 103.592 281.733 105.932 279.861 106.4C275.285 107.648 276.377 112.12 277.001 114.356C277.313 115.396 277.469 116.488 277.469 117.632C277.469 121.272 275.909 124.236 272.841 125.952H272.789C272.633 126.056 272.425 126.16 272.217 126.264L263.897 130.372C264.469 130.32 265.041 130.268 265.613 130.268C274.349 130.268 279.341 134.584 279.341 141.448C279.341 148.312 274.661 152.992 265.509 152.992C256.513 152.992 251.677 148.312 251.677 141.656C251.677 137.288 253.809 133.752 257.813 131.828L266.445 127.564C266.393 127.564 266.289 127.564 266.237 127.564L265.769 127.616C259.477 127.616 253.549 124.86 253.549 117.788C253.549 112.016 257.813 107.96 265.613 107.96C269.929 107.96 273.153 109.156 275.181 111.288C274.765 108.376 275.389 105.568 278.093 104.008ZM266.289 126.264C279.185 126.264 275.909 109.312 264.885 109.312C251.625 109.312 255.525 126.264 266.289 126.264ZM264.781 131.828C249.441 131.828 253.965 151.432 266.445 151.484C281.317 151.484 277.521 131.828 264.781 131.828ZM304.487 125.744C304.487 132.348 304.591 134.22 305.267 135H301.003V119.608C301.003 112.848 298.663 109.832 294.295 109.832C289.615 109.832 285.455 113.732 285.455 120.128L285.403 120.076V135H281.919V117.84C281.919 113.264 281.399 109.832 280.723 109L284.571 108.22C285.143 109.572 285.351 111.86 285.403 113.836C287.327 110.3 291.019 108.064 295.023 108.064C301.159 108.064 304.487 111.392 304.487 119.036V125.744ZM332.438 130.424C333.166 129.54 333.894 129.228 334.466 129.228C335.766 129.228 336.338 130.84 334.674 132.036C331.814 134.064 327.862 135.26 323.858 135.26C316.734 135.26 309.662 131.36 309.662 121.324C309.662 112.224 316.474 108.116 323.13 108.116C329.318 108.116 335.35 111.756 335.35 118.308C335.35 124.132 330.358 127.356 325.21 127.356C322.298 127.356 319.386 126.316 317.254 124.184L317.774 123.404C319.542 124.912 321.726 125.588 323.806 125.588C327.81 125.588 331.502 122.884 331.502 117.788C331.502 112.484 327.238 109.364 322.87 109.364C318.346 109.364 313.718 112.744 313.718 120.648C313.718 129.904 319.282 133.96 324.69 133.96C327.654 133.96 330.566 132.712 332.438 130.424ZM351.314 108.012C355.266 108.012 354.538 112.016 351.21 111.132C350.69 110.976 350.17 110.924 349.65 110.924C346.998 110.924 344.918 113.108 344.918 120.232V135H341.434V117.84C341.434 113.264 340.914 109.832 340.238 109L344.086 108.22C344.606 109.416 344.814 111.288 344.918 113.108C346.062 110.04 348.506 108.012 351.314 108.012ZM27.924 185.96C27.924 196.308 11.284 206.812 6.864 209.984L27.82 209.932L27.768 213H2.86L2.548 211.336C7.436 205.876 23.504 195.528 23.504 185.544C23.504 180.604 19.708 177.588 15.444 177.588C12.896 177.588 10.14 178.68 7.956 181.072C7.124 181.956 6.292 182.32 5.616 182.32C3.692 182.32 2.86 179.564 5.824 178.212C8.632 176.912 12.168 176.132 15.548 176.132C21.944 176.132 27.924 178.888 27.924 185.96ZM47.3553 176.028C59.9393 175.82 68.4673 180.864 68.4673 194.124C68.4673 208.112 59.9393 213.468 47.7193 213.468C44.4953 213.468 38.2553 213.156 34.6673 213.052V176.704C38.4633 176.548 42.8833 176.08 47.3553 176.028ZM47.8753 211.7C56.2993 211.7 64.2553 206.292 64.2553 194.228C64.2553 182.32 56.7153 177.536 45.2753 177.536C41.5313 177.536 38.5153 177.744 38.5153 179.98L38.4633 211.388C40.1793 211.648 45.5873 211.7 47.8753 211.7ZM110.21 182.008C110.73 181.696 111.198 181.592 111.614 181.592C113.382 181.592 113.85 183.932 111.978 184.4C107.402 185.648 108.494 190.12 109.118 192.356C109.43 193.396 109.586 194.488 109.586 195.632C109.586 199.272 108.026 202.236 104.958 203.952H104.906C104.75 204.056 104.542 204.16 104.334 204.264L96.0139 208.372C96.5859 208.32 97.1579 208.268 97.7299 208.268C106.466 208.268 111.458 212.584 111.458 219.448C111.458 226.312 106.778 230.992 97.6259 230.992C88.6299 230.992 83.7939 226.312 83.7939 219.656C83.7939 215.288 85.9259 211.752 89.9299 209.828L98.5619 205.564C98.5099 205.564 98.4059 205.564 98.3539 205.564L97.8859 205.616C91.5939 205.616 85.6659 202.86 85.6659 195.788C85.6659 190.016 89.9299 185.96 97.7299 185.96C102.046 185.96 105.27 187.156 107.298 189.288C106.882 186.376 107.506 183.568 110.21 182.008ZM98.4059 204.264C111.302 204.264 108.026 187.312 97.0019 187.312C83.7419 187.312 87.6419 204.264 98.4059 204.264ZM96.8979 209.828C81.5579 209.828 86.0819 229.432 98.5619 229.484C113.434 229.484 109.638 209.828 96.8979 209.828ZM134.888 203.744C134.888 208.32 135.46 211.752 136.084 212.532L132.236 213.312C131.716 212.064 131.508 209.984 131.404 208.008C129.844 211.44 125.476 213.364 121.368 213.364C116.74 213.364 112.372 210.972 112.372 205.564C112.372 195.164 131.248 198.024 131.404 192.876C131.3 189.756 129.324 187.624 125.84 187.624C123.864 187.624 121.42 188.3 118.56 189.964C117.728 190.432 117 190.64 116.376 190.64C113.568 190.64 113.204 186.688 117.624 186.584C120.224 186.532 122.772 186.376 125.008 186.376C130.728 186.376 134.888 187.312 134.888 193.084V203.744ZM131.404 203.12V195.424C127.764 198.648 116.636 198.128 116.636 205.044C116.636 209.256 119.756 211.284 123.084 211.284C127.088 211.284 131.404 208.476 131.404 203.12ZM183.567 203.744C183.567 210.348 183.671 212.22 184.347 213H180.083V197.608C180.083 190.848 177.743 187.832 173.375 187.832C168.695 187.832 164.483 191.732 164.483 198.128V213H160.999V197.608C160.999 190.848 158.659 187.832 154.291 187.832C149.611 187.832 145.451 191.732 145.451 198.128L145.399 198.076V213H141.915V195.84C141.915 191.264 141.395 187.832 140.719 187L144.567 186.22C145.139 187.572 145.347 189.86 145.399 191.836C147.323 188.3 151.015 186.064 155.019 186.064C159.855 186.064 162.923 188.144 164.015 192.72C165.575 189.34 169.059 186.064 174.103 186.064C180.187 186.064 183.567 189.392 183.567 197.036V203.744ZM211.528 208.424C212.256 207.54 212.984 207.228 213.556 207.228C214.856 207.228 215.428 208.84 213.764 210.036C210.904 212.064 206.952 213.26 202.948 213.26C195.824 213.26 188.752 209.36 188.752 199.324C188.752 190.224 195.564 186.116 202.22 186.116C208.408 186.116 214.44 189.756 214.44 196.308C214.44 202.132 209.448 205.356 204.3 205.356C201.388 205.356 198.476 204.316 196.344 202.184L196.864 201.404C198.632 202.912 200.816 203.588 202.896 203.588C206.9 203.588 210.592 200.884 210.592 195.788C210.592 190.484 206.328 187.364 201.96 187.364C197.436 187.364 192.808 190.744 192.808 198.648C192.808 207.904 198.372 211.96 203.78 211.96C206.744 211.96 209.656 210.712 211.528 208.424ZM254.376 203.744C254.376 208.32 254.948 211.752 255.572 212.532L251.724 213.312C251.204 212.064 250.996 209.984 250.892 208.008C249.332 211.44 244.964 213.364 240.856 213.364C236.228 213.364 231.86 210.972 231.86 205.564C231.86 195.164 250.736 198.024 250.892 192.876C250.788 189.756 248.812 187.624 245.328 187.624C243.352 187.624 240.908 188.3 238.048 189.964C237.216 190.432 236.488 190.64 235.864 190.64C233.056 190.64 232.692 186.688 237.112 186.584C239.712 186.532 242.26 186.376 244.496 186.376C250.216 186.376 254.376 187.312 254.376 193.084V203.744ZM250.892 203.12V195.424C247.252 198.648 236.124 198.128 236.124 205.044C236.124 209.256 239.244 211.284 242.572 211.284C246.576 211.284 250.892 208.476 250.892 203.12ZM271.283 186.012C275.235 186.012 274.507 190.016 271.179 189.132C270.659 188.976 270.139 188.924 269.619 188.924C266.967 188.924 264.887 191.108 264.887 198.232V213H261.403V195.84C261.403 191.264 260.883 187.832 260.207 187L264.055 186.22C264.575 187.416 264.783 189.288 264.887 191.108C266.031 188.04 268.475 186.012 271.283 186.012ZM287.416 211.284L287.832 212.376C286.324 213.104 284.712 213.572 283.204 213.572C280.76 213.572 278.732 212.22 278.732 208.372L278.68 187.676H276.288V186.792H276.6C279.148 186.792 280.76 184.452 280.916 181.228H282.216V186.428H285.908V187.676H282.216V207.696C282.216 210.192 282.996 211.7 285.076 211.7C285.752 211.7 286.532 211.596 287.416 211.284ZM294.257 181.956C293.009 182.216 291.709 181.436 291.397 180.188C291.085 178.888 291.917 177.588 293.165 177.328C294.465 177.016 295.713 177.796 296.025 179.096C296.337 180.344 295.557 181.644 294.257 181.956ZM291.969 213V186.844L295.505 186.116L295.453 213H291.969ZM304.995 190.432C304.995 197.66 321.635 195.112 321.635 204.94C321.635 210.816 316.279 213.26 310.663 213.26C307.491 213.26 304.215 212.48 301.771 211.128C298.859 209.568 299.743 206.968 301.615 206.968C302.343 206.968 303.279 207.384 304.163 208.528C305.983 210.868 308.635 211.856 311.131 211.856C314.875 211.856 318.255 209.724 318.255 206.656C318.255 197.504 301.927 200.988 301.927 191.784C301.927 187.312 305.775 185.804 310.143 185.804C312.171 185.804 314.303 186.116 316.227 186.636C320.231 187.728 319.451 190.64 317.527 190.64C316.903 190.64 316.175 190.328 315.447 189.6C313.731 187.832 311.495 187.104 309.571 187.104C307.075 187.104 304.995 188.352 304.995 190.432ZM336.267 211.284L336.683 212.376C335.175 213.104 333.563 213.572 332.055 213.572C329.611 213.572 327.583 212.22 327.583 208.372L327.531 187.676H325.139V186.792H325.451C327.999 186.792 329.611 184.452 329.767 181.228H331.067V186.428H334.759V187.676H331.067V207.696C331.067 210.192 331.847 211.7 333.927 211.7C334.603 211.7 335.383 211.596 336.267 211.284Z" fill="url(#paint0_linear_3410_42712)"/>
</g>
<defs>
<linearGradient id="paint0_linear_3410_42712" x1="198" y1="28.0313" x2="198" y2="213.281" gradientUnits="userSpaceOnUse">
<stop stop-color="#FAC59F"/>
<stop offset="1" stop-color="#6B47AB"/>
</linearGradient>
<clipPath id="clip0_3410_42712">
<rect width="395" height="78" fill="white"/>
</clipPath>
</defs>
</svg>
