<svg width="85" height="25" viewBox="0 0 85 25" fill="none" xmlns="http://www.w3.org/2000/svg">
<path d="M0.682808 2.32C2.05081 2.224 3.49081 2.152 4.88281 2.152C8.84281 2.152 12.2988 2.896 12.2988 6.688C12.2988 10.528 9.15481 11.728 5.96281 11.728C4.73881 11.728 3.51481 11.56 2.45881 11.296L2.43481 19H0.682808V2.32ZM2.45881 10.36C3.29881 10.6 4.54681 10.84 5.79481 10.84C8.12281 10.84 10.4748 10 10.4748 6.688C10.4748 4.696 8.86681 2.92 5.86681 2.92C3.51481 2.92 2.50681 3.136 2.45881 4.6V10.36ZM19.9567 6.544C21.7807 6.544 21.4447 8.392 19.9087 7.984C19.6687 7.912 19.4287 7.888 19.1887 7.888C17.9647 7.888 17.0047 8.896 17.0047 12.184V19H15.3967V11.08C15.3967 8.968 15.1567 7.384 14.8447 7L16.6207 6.64C16.8607 7.192 16.9567 8.056 17.0047 8.896C17.5327 7.48 18.6607 6.544 19.9567 6.544ZM28.8867 6.448C37.2387 6.448 37.4787 19.12 28.8387 19.12C20.1987 19.12 20.5107 6.448 28.8867 6.448ZM29.2467 18.28C36.1827 18.28 34.5507 7.288 28.6227 7.288C21.3747 7.288 23.1747 18.28 29.2467 18.28ZM48.5261 14.728C48.5261 16.84 48.7901 18.424 49.1021 18.784L47.3021 19.144C47.0621 18.544 46.9661 17.56 46.9421 16.648C46.1261 18.304 44.5661 19.144 42.7421 19.144C40.2941 19.144 38.4221 17.488 38.4221 14.104V6.736H40.0301V13.864C40.0301 16.72 41.2541 18.04 43.1501 18.04C45.1901 18.04 46.9181 16.408 46.9181 13.456V6.736H48.5261V14.728ZM64.627 14.728C64.627 16.84 64.891 18.424 65.203 18.784L63.427 19.144C63.187 18.472 63.067 17.752 63.067 17.056C62.083 18.352 60.091 19.144 58.075 19.144C55.075 19.144 52.003 17.392 52.003 12.976C52.003 8.632 55.195 6.52 58.675 6.52C60.139 6.52 61.675 6.904 63.019 7.624V0.831999L64.627 0.519999V14.728ZM63.019 14.104L63.043 11.92L63.019 11.968C63.019 8.896 61.099 7.12 58.627 7.12C56.155 7.12 53.875 8.92 53.875 13C53.875 16.576 56.131 18.28 58.795 18.28C61.075 18.28 63.019 16.864 63.019 14.104ZM68.6289 0.831999L70.2609 0.495999L70.2369 19H68.6289V0.831999ZM83.1809 6.736H84.7889L79.2689 19.168C77.5889 22.888 75.9809 24.256 72.8609 24.256C70.7969 24.256 70.7969 21.976 72.5489 21.976C72.7889 21.976 73.0289 22 73.3169 22.096C73.8209 22.264 74.2769 22.336 74.6849 22.336C76.5569 22.336 77.6129 20.8 78.7169 18.376L72.9329 6.736H74.6849L79.5809 16.408L83.0129 8.512C83.3009 7.888 83.4449 7.384 83.1809 6.736Z" fill="url(#paint0_linear_3278_1271)"/>
<defs>
<linearGradient id="paint0_linear_3278_1271" x1="-113.92" y1="-6" x2="-94.0235" y2="48.9119" gradientUnits="userSpaceOnUse">
<stop stop-color="#FAC59F"/>
<stop offset="1" stop-color="#6B47AB"/>
</linearGradient>
</defs>
</svg>
