<svg width="46" height="32" viewBox="0 0 46 32" fill="none" xmlns="http://www.w3.org/2000/svg">
<path d="M44.5 16C44.5 24.0013 37.9804 30.5 29.9229 30.5C21.8653 30.5 15.3457 24.0013 15.3457 16C15.3457 7.99867 21.8653 1.5 29.9229 1.5C37.9804 1.5 44.5 7.99867 44.5 16Z" stroke="#9F70E0" stroke-width="3"/>
<path d="M34.6882 14.7391C34.6878 14.7386 34.6875 14.7382 34.687 14.7377L27.5248 7.51552C26.9882 6.97448 26.1203 6.9765 25.5862 7.52025C25.0522 8.06393 25.0542 8.9433 25.5908 9.48441L30.3995 14.3333H1.37071C0.613669 14.3333 0 14.9551 0 15.7222C0 16.4893 0.613669 17.1111 1.37071 17.1111H30.3995L25.5909 21.96C25.0543 22.5011 25.0523 23.3805 25.5863 23.9241C26.1204 24.468 26.9883 24.4698 27.5248 23.9289L34.6871 16.7066C34.6875 16.7062 34.6878 16.7057 34.6883 16.7053C35.2251 16.1624 35.2234 15.2802 34.6882 14.7391Z" fill="#9F70E0"/>
</svg>
