<svg width="551" height="78" viewBox="0 0 551 78" fill="none" xmlns="http://www.w3.org/2000/svg">
<g clip-path="url(#clip0_3410_42714)">
<path d="M16.328 -57.972C28.912 -58.18 37.44 -53.136 37.44 -39.876C37.44 -25.888 28.912 -20.532 16.692 -20.532C13.468 -20.532 7.228 -20.844 3.64 -20.948V-57.296C7.436 -57.452 11.856 -57.92 16.328 -57.972ZM16.848 -22.3C25.272 -22.3 33.228 -27.708 33.228 -39.772C33.228 -51.68 25.688 -56.464 14.248 -56.464C10.504 -56.464 7.488 -56.256 7.488 -54.02L7.436 -22.612C9.152 -22.352 14.56 -22.3 16.848 -22.3ZM45.1746 -52.044C43.9266 -51.784 42.6266 -52.564 42.3146 -53.812C42.0026 -55.112 42.8346 -56.412 44.0826 -56.672C45.3826 -56.984 46.6306 -56.204 46.9426 -54.904C47.2546 -53.656 46.4746 -52.356 45.1746 -52.044ZM42.8866 -21V-47.156L46.4226 -47.884L46.3706 -21H42.8866ZM76.0849 -51.992C76.6049 -52.304 77.0729 -52.408 77.4889 -52.408C79.2569 -52.408 79.7249 -50.068 77.8529 -49.6C73.2769 -48.352 74.3689 -43.88 74.9929 -41.644C75.3049 -40.604 75.4609 -39.512 75.4609 -38.368C75.4609 -34.728 73.9009 -31.764 70.8329 -30.048H70.7809C70.6249 -29.944 70.4169 -29.84 70.2089 -29.736L61.8889 -25.628C62.4609 -25.68 63.0329 -25.732 63.6049 -25.732C72.3409 -25.732 77.3329 -21.416 77.3329 -14.552C77.3329 -7.688 72.6529 -3.008 63.5009 -3.008C54.5049 -3.008 49.6689 -7.688 49.6689 -14.344C49.6689 -18.712 51.8009 -22.248 55.8049 -24.172L64.4369 -28.436C64.3849 -28.436 64.2809 -28.436 64.2289 -28.436L63.7609 -28.384C57.4689 -28.384 51.5409 -31.14 51.5409 -38.212C51.5409 -43.984 55.8049 -48.04 63.6049 -48.04C67.9209 -48.04 71.1449 -46.844 73.1729 -44.712C72.7569 -47.624 73.3809 -50.432 76.0849 -51.992ZM64.2809 -29.736C77.1769 -29.736 73.9009 -46.688 62.8769 -46.688C49.6169 -46.688 53.5169 -29.736 64.2809 -29.736ZM62.7729 -24.172C47.4329 -24.172 51.9569 -4.568 64.4369 -4.516C79.3089 -4.516 75.5129 -24.172 62.7729 -24.172ZM83.3621 -52.044C82.1141 -51.784 80.8141 -52.564 80.5021 -53.812C80.1901 -55.112 81.0221 -56.412 82.2701 -56.672C83.5701 -56.984 84.8181 -56.204 85.1301 -54.904C85.4421 -53.656 84.6621 -52.356 83.3621 -52.044ZM81.0741 -21V-47.156L84.6101 -47.884L84.5581 -21H81.0741ZM99.9822 -22.716L100.398 -21.624C98.8902 -20.896 97.2782 -20.428 95.7702 -20.428C93.3262 -20.428 91.2982 -21.78 91.2982 -25.628L91.2462 -46.324H88.8542V-47.208H89.1662C91.7142 -47.208 93.3262 -49.548 93.4822 -52.772H94.7822V-47.572H98.4742V-46.324H94.7822V-26.304C94.7822 -23.808 95.5622 -22.3 97.6422 -22.3C98.3182 -22.3 99.0982 -22.404 99.9822 -22.716ZM125.595 -30.256C125.595 -25.68 126.167 -22.248 126.791 -21.468L122.943 -20.688C122.423 -21.936 122.215 -24.016 122.111 -25.992C120.551 -22.56 116.183 -20.636 112.075 -20.636C107.447 -20.636 103.079 -23.028 103.079 -28.436C103.079 -38.836 121.955 -35.976 122.111 -41.124C122.007 -44.244 120.031 -46.376 116.547 -46.376C114.571 -46.376 112.127 -45.7 109.267 -44.036C108.435 -43.568 107.707 -43.36 107.083 -43.36C104.275 -43.36 103.911 -47.312 108.331 -47.416C110.931 -47.468 113.479 -47.624 115.715 -47.624C121.435 -47.624 125.595 -46.688 125.595 -40.916V-30.256ZM122.111 -30.88V-38.576C118.471 -35.352 107.343 -35.872 107.343 -28.956C107.343 -24.744 110.463 -22.716 113.791 -22.716C117.795 -22.716 122.111 -25.524 122.111 -30.88ZM132.362 -60.364L135.898 -61.092L135.846 -21H132.362V-60.364ZM159.211 -43.308C161.343 -46.168 165.659 -47.884 170.027 -47.884C176.527 -47.884 183.183 -44.088 183.183 -34.52C183.183 -25.056 176.267 -20.532 168.727 -20.532C165.503 -20.532 162.227 -21.312 159.263 -22.924V-5.556L155.779 -4.88V-38.264C155.779 -42.84 155.259 -46.272 154.583 -47.104L158.431 -47.884C158.951 -46.428 159.211 -44.868 159.211 -43.308ZM168.831 -21.832C174.187 -21.832 179.127 -25.732 179.075 -34.572C179.075 -42.32 174.239 -46.012 168.467 -46.012C163.527 -46.012 159.263 -42.892 159.263 -36.964V-32.232L159.315 -32.284C159.315 -25.628 163.475 -21.78 168.831 -21.832ZM198.717 -47.988C202.669 -47.988 201.941 -43.984 198.613 -44.868C198.093 -45.024 197.573 -45.076 197.053 -45.076C194.401 -45.076 192.321 -42.892 192.321 -35.768V-21H188.837V-38.16C188.837 -42.736 188.317 -46.168 187.641 -47L191.489 -47.78C192.009 -46.584 192.217 -44.712 192.321 -42.892C193.465 -45.96 195.909 -47.988 198.717 -47.988ZM216.245 -48.196C234.341 -48.196 234.861 -20.74 216.141 -20.74C197.421 -20.74 198.097 -48.196 216.245 -48.196ZM217.025 -22.56C232.053 -22.56 228.517 -46.376 215.673 -46.376C199.969 -46.376 203.869 -22.56 217.025 -22.56ZM261.605 -30.256C261.605 -25.68 262.177 -22.248 262.853 -21.468L259.005 -20.688C258.485 -22.144 258.225 -23.704 258.225 -25.212C256.093 -22.404 251.777 -20.688 247.409 -20.688C240.909 -20.688 234.253 -24.484 234.253 -34.052C234.253 -43.464 241.169 -48.04 248.709 -48.04C251.881 -48.04 255.209 -47.208 258.121 -45.648V-60.364L261.605 -61.04V-30.256ZM258.121 -31.608L258.173 -36.34L258.121 -36.236C258.121 -42.892 253.961 -46.74 248.605 -46.74C243.249 -46.74 238.309 -42.84 238.309 -34C238.309 -26.252 243.197 -22.56 248.969 -22.56C253.909 -22.56 258.121 -25.628 258.121 -31.608ZM290.036 -30.256C290.036 -25.68 290.608 -22.248 291.284 -21.468L287.384 -20.688C286.864 -21.988 286.656 -24.12 286.604 -26.096C284.836 -22.508 281.456 -20.688 277.504 -20.688C272.2 -20.688 268.144 -24.276 268.144 -31.608V-47.572H271.628V-32.128C271.628 -25.94 274.28 -23.08 278.388 -23.08C282.808 -23.08 286.552 -26.616 286.552 -33.012V-47.572H290.036V-30.256ZM320.397 -28.02L321.229 -27.5C318.681 -23.028 313.793 -20.74 309.009 -20.74C302.301 -20.74 295.749 -25.212 295.749 -34.624C295.749 -44.348 301.885 -47.884 309.321 -47.884C311.661 -47.884 314.157 -47.52 316.601 -46.896C320.189 -46.012 319.253 -42.528 316.965 -42.528C316.237 -42.528 315.301 -42.892 314.365 -43.88C312.649 -45.596 310.257 -46.636 307.917 -46.636C303.809 -46.636 299.805 -43.516 299.805 -35.612C299.805 -26.616 305.265 -22.82 310.777 -22.82C314.625 -22.82 318.473 -24.744 320.397 -28.02ZM334.896 -22.716L335.312 -21.624C333.804 -20.896 332.192 -20.428 330.684 -20.428C328.24 -20.428 326.212 -21.78 326.212 -25.628L326.16 -46.324H323.768V-47.208H324.08C326.628 -47.208 328.24 -49.548 328.396 -52.772H329.696V-47.572H333.388V-46.324H329.696V-26.304C329.696 -23.808 330.476 -22.3 332.556 -22.3C333.232 -22.3 334.012 -22.404 334.896 -22.716ZM378.605 -30.256C378.605 -25.68 379.177 -22.248 379.853 -21.468L376.005 -20.688C375.485 -22.144 375.225 -23.704 375.225 -25.212C373.093 -22.404 368.777 -20.688 364.409 -20.688C357.909 -20.688 351.253 -24.484 351.253 -34.052C351.253 -43.464 358.169 -48.04 365.709 -48.04C368.881 -48.04 372.209 -47.208 375.121 -45.648V-60.364L378.605 -61.04V-30.256ZM375.121 -31.608L375.173 -36.34L375.121 -36.236C375.121 -42.892 370.961 -46.74 365.605 -46.74C360.249 -46.74 355.309 -42.84 355.309 -34C355.309 -26.252 360.197 -22.56 365.969 -22.56C370.909 -22.56 375.121 -25.628 375.121 -31.608ZM407.036 -25.576C407.764 -26.46 408.492 -26.772 409.064 -26.772C410.364 -26.772 410.936 -25.16 409.272 -23.964C406.412 -21.936 402.46 -20.74 398.456 -20.74C391.332 -20.74 384.26 -24.64 384.26 -34.676C384.26 -43.776 391.072 -47.884 397.728 -47.884C403.916 -47.884 409.948 -44.244 409.948 -37.692C409.948 -31.868 404.956 -28.644 399.808 -28.644C396.896 -28.644 393.984 -29.684 391.852 -31.816L392.372 -32.596C394.14 -31.088 396.324 -30.412 398.404 -30.412C402.408 -30.412 406.1 -33.116 406.1 -38.212C406.1 -43.516 401.836 -46.636 397.468 -46.636C392.944 -46.636 388.316 -43.256 388.316 -35.352C388.316 -26.096 393.88 -22.04 399.288 -22.04C402.252 -22.04 405.164 -23.288 407.036 -25.576ZM419.1 -43.568C419.1 -36.34 435.74 -38.888 435.74 -29.06C435.74 -23.184 430.384 -20.74 424.768 -20.74C421.596 -20.74 418.32 -21.52 415.876 -22.872C412.964 -24.432 413.848 -27.032 415.72 -27.032C416.448 -27.032 417.384 -26.616 418.268 -25.472C420.088 -23.132 422.74 -22.144 425.236 -22.144C428.98 -22.144 432.36 -24.276 432.36 -27.344C432.36 -36.496 416.032 -33.012 416.032 -42.216C416.032 -46.688 419.88 -48.196 424.248 -48.196C426.276 -48.196 428.408 -47.884 430.332 -47.364C434.336 -46.272 433.556 -43.36 431.632 -43.36C431.008 -43.36 430.28 -43.672 429.552 -44.4C427.836 -46.168 425.6 -46.896 423.676 -46.896C421.18 -46.896 419.1 -45.648 419.1 -43.568ZM442.995 -52.044C441.747 -51.784 440.447 -52.564 440.135 -53.812C439.823 -55.112 440.655 -56.412 441.903 -56.672C443.203 -56.984 444.451 -56.204 444.763 -54.904C445.075 -53.656 444.295 -52.356 442.995 -52.044ZM440.707 -21V-47.156L444.243 -47.884L444.191 -21H440.707ZM473.905 -51.992C474.425 -52.304 474.893 -52.408 475.309 -52.408C477.077 -52.408 477.545 -50.068 475.673 -49.6C471.097 -48.352 472.189 -43.88 472.813 -41.644C473.125 -40.604 473.281 -39.512 473.281 -38.368C473.281 -34.728 471.721 -31.764 468.653 -30.048H468.601C468.445 -29.944 468.237 -29.84 468.029 -29.736L459.709 -25.628C460.281 -25.68 460.853 -25.732 461.425 -25.732C470.161 -25.732 475.153 -21.416 475.153 -14.552C475.153 -7.688 470.473 -3.008 461.321 -3.008C452.325 -3.008 447.489 -7.688 447.489 -14.344C447.489 -18.712 449.621 -22.248 453.625 -24.172L462.257 -28.436C462.205 -28.436 462.101 -28.436 462.049 -28.436L461.581 -28.384C455.289 -28.384 449.361 -31.14 449.361 -38.212C449.361 -43.984 453.625 -48.04 461.425 -48.04C465.741 -48.04 468.965 -46.844 470.993 -44.712C470.577 -47.624 471.201 -50.432 473.905 -51.992ZM462.101 -29.736C474.997 -29.736 471.721 -46.688 460.697 -46.688C447.437 -46.688 451.337 -29.736 462.101 -29.736ZM460.593 -24.172C445.253 -24.172 449.777 -4.568 462.257 -4.516C477.129 -4.516 473.333 -24.172 460.593 -24.172ZM500.299 -30.256C500.299 -23.652 500.403 -21.78 501.079 -21H496.815V-36.392C496.815 -43.152 494.475 -46.168 490.107 -46.168C485.427 -46.168 481.267 -42.268 481.267 -35.872L481.215 -35.924V-21H477.731V-38.16C477.731 -42.736 477.211 -46.168 476.535 -47L480.383 -47.78C480.955 -46.428 481.163 -44.14 481.215 -42.164C483.139 -45.7 486.831 -47.936 490.835 -47.936C496.971 -47.936 500.299 -44.608 500.299 -36.964V-30.256ZM528.251 -25.576C528.979 -26.46 529.707 -26.772 530.279 -26.772C531.579 -26.772 532.151 -25.16 530.487 -23.964C527.627 -21.936 523.675 -20.74 519.671 -20.74C512.547 -20.74 505.475 -24.64 505.475 -34.676C505.475 -43.776 512.287 -47.884 518.943 -47.884C525.131 -47.884 531.163 -44.244 531.163 -37.692C531.163 -31.868 526.171 -28.644 521.023 -28.644C518.111 -28.644 515.199 -29.684 513.067 -31.816L513.587 -32.596C515.355 -31.088 517.539 -30.412 519.619 -30.412C523.623 -30.412 527.315 -33.116 527.315 -38.212C527.315 -43.516 523.051 -46.636 518.683 -46.636C514.159 -46.636 509.531 -43.256 509.531 -35.352C509.531 -26.096 515.095 -22.04 520.503 -22.04C523.467 -22.04 526.379 -23.288 528.251 -25.576ZM547.127 -47.988C551.079 -47.988 550.351 -43.984 547.023 -44.868C546.503 -45.024 545.983 -45.076 545.463 -45.076C542.811 -45.076 540.731 -42.892 540.731 -35.768V-21H537.247V-38.16C537.247 -42.736 536.727 -46.168 536.051 -47L539.899 -47.78C540.419 -46.584 540.627 -44.712 540.731 -42.892C541.875 -45.96 544.319 -47.988 547.127 -47.988ZM31.772 41.92C31.772 52.788 26.52 57.468 17.056 57.468C7.54 57.468 3.12 51.384 3.12 41.92V20.652H6.916L6.968 41.92H6.916C6.916 50.084 10.92 55.024 18.2 55.024C25.428 55.024 29.588 50.344 29.588 41.92V20.652H31.772V41.92ZM66.6055 57H62.2895L50.4335 40.88L38.4215 57H36.0295L49.1335 39.112L35.5615 20.652H39.9295L51.3175 36.148L59.8455 24.5C60.6255 23.46 62.2375 21.692 61.7695 20.652H65.4095L52.6175 37.916L66.6055 57ZM92.5052 17.22H94.4812L70.5092 58.196H68.5332L92.5052 17.22ZM126.073 41.92C126.073 52.788 120.821 57.468 111.357 57.468C101.841 57.468 97.4208 51.384 97.4208 41.92V20.652H101.217L101.269 41.92H101.217C101.217 50.084 105.221 55.024 112.501 55.024C119.729 55.024 123.889 50.344 123.889 41.92V20.652H126.073V41.92ZM132.878 57V20.652H136.674L136.726 57H132.878ZM182.793 47.744C182.793 52.32 183.365 55.752 184.041 56.532L180.193 57.312C179.673 55.856 179.413 54.296 179.413 52.788C177.281 55.596 172.965 57.312 168.597 57.312C162.097 57.312 155.441 53.516 155.441 43.948C155.441 34.536 162.357 29.96 169.897 29.96C173.069 29.96 176.397 30.792 179.309 32.352V17.636L182.793 16.96V47.744ZM179.309 46.392L179.361 41.66L179.309 41.764C179.309 35.108 175.149 31.26 169.793 31.26C164.437 31.26 159.497 35.16 159.497 44C159.497 51.748 164.385 55.44 170.157 55.44C175.097 55.44 179.309 52.372 179.309 46.392ZM211.223 52.424C211.951 51.54 212.679 51.228 213.251 51.228C214.551 51.228 215.123 52.84 213.459 54.036C210.599 56.064 206.647 57.26 202.643 57.26C195.519 57.26 188.447 53.36 188.447 43.324C188.447 34.224 195.259 30.116 201.915 30.116C208.103 30.116 214.135 33.756 214.135 40.308C214.135 46.132 209.143 49.356 203.995 49.356C201.083 49.356 198.171 48.316 196.039 46.184L196.559 45.404C198.327 46.912 200.511 47.588 202.591 47.588C206.595 47.588 210.287 44.884 210.287 39.788C210.287 34.484 206.023 31.364 201.655 31.364C197.131 31.364 192.503 34.744 192.503 42.648C192.503 51.904 198.067 55.96 203.475 55.96C206.439 55.96 209.351 54.712 211.223 52.424ZM223.288 34.432C223.288 41.66 239.928 39.112 239.928 48.94C239.928 54.816 234.572 57.26 228.956 57.26C225.784 57.26 222.508 56.48 220.064 55.128C217.152 53.568 218.036 50.968 219.908 50.968C220.636 50.968 221.572 51.384 222.456 52.528C224.276 54.868 226.928 55.856 229.424 55.856C233.168 55.856 236.548 53.724 236.548 50.656C236.548 41.504 220.22 44.988 220.22 35.784C220.22 31.312 224.068 29.804 228.436 29.804C230.464 29.804 232.596 30.116 234.52 30.636C238.524 31.728 237.744 34.64 235.82 34.64C235.196 34.64 234.468 34.328 233.74 33.6C232.024 31.832 229.788 31.104 227.864 31.104C225.368 31.104 223.288 32.352 223.288 34.432ZM247.182 25.956C245.934 26.216 244.634 25.436 244.322 24.188C244.01 22.888 244.842 21.588 246.09 21.328C247.39 21.016 248.638 21.796 248.95 23.096C249.262 24.344 248.482 25.644 247.182 25.956ZM244.894 57V30.844L248.43 30.116L248.378 57H244.894ZM278.093 26.008C278.613 25.696 279.081 25.592 279.497 25.592C281.265 25.592 281.733 27.932 279.861 28.4C275.285 29.648 276.377 34.12 277.001 36.356C277.313 37.396 277.469 38.488 277.469 39.632C277.469 43.272 275.909 46.236 272.841 47.952H272.789C272.633 48.056 272.425 48.16 272.217 48.264L263.897 52.372C264.469 52.32 265.041 52.268 265.613 52.268C274.349 52.268 279.341 56.584 279.341 63.448C279.341 70.312 274.661 74.992 265.509 74.992C256.513 74.992 251.677 70.312 251.677 63.656C251.677 59.288 253.809 55.752 257.813 53.828L266.445 49.564C266.393 49.564 266.289 49.564 266.237 49.564L265.769 49.616C259.477 49.616 253.549 46.86 253.549 39.788C253.549 34.016 257.813 29.96 265.613 29.96C269.929 29.96 273.153 31.156 275.181 33.288C274.765 30.376 275.389 27.568 278.093 26.008ZM266.289 48.264C279.185 48.264 275.909 31.312 264.885 31.312C251.625 31.312 255.525 48.264 266.289 48.264ZM264.781 53.828C249.441 53.828 253.965 73.432 266.445 73.484C281.317 73.484 277.521 53.828 264.781 53.828ZM304.487 47.744C304.487 54.348 304.591 56.22 305.267 57H301.003V41.608C301.003 34.848 298.663 31.832 294.295 31.832C289.615 31.832 285.455 35.732 285.455 42.128L285.403 42.076V57H281.919V39.84C281.919 35.264 281.399 31.832 280.723 31L284.571 30.22C285.143 31.572 285.351 33.86 285.403 35.836C287.327 32.3 291.019 30.064 295.023 30.064C301.159 30.064 304.487 33.392 304.487 41.036V47.744ZM332.438 52.424C333.166 51.54 333.894 51.228 334.466 51.228C335.766 51.228 336.338 52.84 334.674 54.036C331.814 56.064 327.862 57.26 323.858 57.26C316.734 57.26 309.662 53.36 309.662 43.324C309.662 34.224 316.474 30.116 323.13 30.116C329.318 30.116 335.35 33.756 335.35 40.308C335.35 46.132 330.358 49.356 325.21 49.356C322.298 49.356 319.386 48.316 317.254 46.184L317.774 45.404C319.542 46.912 321.726 47.588 323.806 47.588C327.81 47.588 331.502 44.884 331.502 39.788C331.502 34.484 327.238 31.364 322.87 31.364C318.346 31.364 313.718 34.744 313.718 42.648C313.718 51.904 319.282 55.96 324.69 55.96C327.654 55.96 330.566 54.712 332.438 52.424ZM351.314 30.012C355.266 30.012 354.538 34.016 351.21 33.132C350.69 32.976 350.17 32.924 349.65 32.924C346.998 32.924 344.918 35.108 344.918 42.232V57H341.434V39.84C341.434 35.264 340.914 31.832 340.238 31L344.086 30.22C344.606 31.416 344.814 33.288 344.918 35.108C346.062 32.04 348.506 30.012 351.314 30.012ZM27.924 107.96C27.924 118.308 11.284 128.812 6.864 131.984L27.82 131.932L27.768 135H2.86L2.548 133.336C7.436 127.876 23.504 117.528 23.504 107.544C23.504 102.604 19.708 99.588 15.444 99.588C12.896 99.588 10.14 100.68 7.956 103.072C7.124 103.956 6.292 104.32 5.616 104.32C3.692 104.32 2.86 101.564 5.824 100.212C8.632 98.912 12.168 98.132 15.548 98.132C21.944 98.132 27.924 100.888 27.924 107.96ZM47.3553 98.028C59.9393 97.82 68.4673 102.864 68.4673 116.124C68.4673 130.112 59.9393 135.468 47.7193 135.468C44.4953 135.468 38.2553 135.156 34.6673 135.052V98.704C38.4633 98.548 42.8833 98.08 47.3553 98.028ZM47.8753 133.7C56.2993 133.7 64.2553 128.292 64.2553 116.228C64.2553 104.32 56.7153 99.536 45.2753 99.536C41.5313 99.536 38.5153 99.744 38.5153 101.98L38.4633 133.388C40.1793 133.648 45.5873 133.7 47.8753 133.7ZM110.21 104.008C110.73 103.696 111.198 103.592 111.614 103.592C113.382 103.592 113.85 105.932 111.978 106.4C107.402 107.648 108.494 112.12 109.118 114.356C109.43 115.396 109.586 116.488 109.586 117.632C109.586 121.272 108.026 124.236 104.958 125.952H104.906C104.75 126.056 104.542 126.16 104.334 126.264L96.0139 130.372C96.5859 130.32 97.1579 130.268 97.7299 130.268C106.466 130.268 111.458 134.584 111.458 141.448C111.458 148.312 106.778 152.992 97.6259 152.992C88.6299 152.992 83.7939 148.312 83.7939 141.656C83.7939 137.288 85.9259 133.752 89.9299 131.828L98.5619 127.564C98.5099 127.564 98.4059 127.564 98.3539 127.564L97.8859 127.616C91.5939 127.616 85.6659 124.86 85.6659 117.788C85.6659 112.016 89.9299 107.96 97.7299 107.96C102.046 107.96 105.27 109.156 107.298 111.288C106.882 108.376 107.506 105.568 110.21 104.008ZM98.4059 126.264C111.302 126.264 108.026 109.312 97.0019 109.312C83.7419 109.312 87.6419 126.264 98.4059 126.264ZM96.8979 131.828C81.5579 131.828 86.0819 151.432 98.5619 151.484C113.434 151.484 109.638 131.828 96.8979 131.828ZM134.888 125.744C134.888 130.32 135.46 133.752 136.084 134.532L132.236 135.312C131.716 134.064 131.508 131.984 131.404 130.008C129.844 133.44 125.476 135.364 121.368 135.364C116.74 135.364 112.372 132.972 112.372 127.564C112.372 117.164 131.248 120.024 131.404 114.876C131.3 111.756 129.324 109.624 125.84 109.624C123.864 109.624 121.42 110.3 118.56 111.964C117.728 112.432 117 112.64 116.376 112.64C113.568 112.64 113.204 108.688 117.624 108.584C120.224 108.532 122.772 108.376 125.008 108.376C130.728 108.376 134.888 109.312 134.888 115.084V125.744ZM131.404 125.12V117.424C127.764 120.648 116.636 120.128 116.636 127.044C116.636 131.256 119.756 133.284 123.084 133.284C127.088 133.284 131.404 130.476 131.404 125.12ZM183.567 125.744C183.567 132.348 183.671 134.22 184.347 135H180.083V119.608C180.083 112.848 177.743 109.832 173.375 109.832C168.695 109.832 164.483 113.732 164.483 120.128V135H160.999V119.608C160.999 112.848 158.659 109.832 154.291 109.832C149.611 109.832 145.451 113.732 145.451 120.128L145.399 120.076V135H141.915V117.84C141.915 113.264 141.395 109.832 140.719 109L144.567 108.22C145.139 109.572 145.347 111.86 145.399 113.836C147.323 110.3 151.015 108.064 155.019 108.064C159.855 108.064 162.923 110.144 164.015 114.72C165.575 111.34 169.059 108.064 174.103 108.064C180.187 108.064 183.567 111.392 183.567 119.036V125.744ZM211.528 130.424C212.256 129.54 212.984 129.228 213.556 129.228C214.856 129.228 215.428 130.84 213.764 132.036C210.904 134.064 206.952 135.26 202.948 135.26C195.824 135.26 188.752 131.36 188.752 121.324C188.752 112.224 195.564 108.116 202.22 108.116C208.408 108.116 214.44 111.756 214.44 118.308C214.44 124.132 209.448 127.356 204.3 127.356C201.388 127.356 198.476 126.316 196.344 124.184L196.864 123.404C198.632 124.912 200.816 125.588 202.896 125.588C206.9 125.588 210.592 122.884 210.592 117.788C210.592 112.484 206.328 109.364 201.96 109.364C197.436 109.364 192.808 112.744 192.808 120.648C192.808 129.904 198.372 133.96 203.78 133.96C206.744 133.96 209.656 132.712 211.528 130.424ZM254.376 125.744C254.376 130.32 254.948 133.752 255.572 134.532L251.724 135.312C251.204 134.064 250.996 131.984 250.892 130.008C249.332 133.44 244.964 135.364 240.856 135.364C236.228 135.364 231.86 132.972 231.86 127.564C231.86 117.164 250.736 120.024 250.892 114.876C250.788 111.756 248.812 109.624 245.328 109.624C243.352 109.624 240.908 110.3 238.048 111.964C237.216 112.432 236.488 112.64 235.864 112.64C233.056 112.64 232.692 108.688 237.112 108.584C239.712 108.532 242.26 108.376 244.496 108.376C250.216 108.376 254.376 109.312 254.376 115.084V125.744ZM250.892 125.12V117.424C247.252 120.648 236.124 120.128 236.124 127.044C236.124 131.256 239.244 133.284 242.572 133.284C246.576 133.284 250.892 130.476 250.892 125.12ZM271.283 108.012C275.235 108.012 274.507 112.016 271.179 111.132C270.659 110.976 270.139 110.924 269.619 110.924C266.967 110.924 264.887 113.108 264.887 120.232V135H261.403V117.84C261.403 113.264 260.883 109.832 260.207 109L264.055 108.22C264.575 109.416 264.783 111.288 264.887 113.108C266.031 110.04 268.475 108.012 271.283 108.012ZM287.416 133.284L287.832 134.376C286.324 135.104 284.712 135.572 283.204 135.572C280.76 135.572 278.732 134.22 278.732 130.372L278.68 109.676H276.288V108.792H276.6C279.148 108.792 280.76 106.452 280.916 103.228H282.216V108.428H285.908V109.676H282.216V129.696C282.216 132.192 282.996 133.7 285.076 133.7C285.752 133.7 286.532 133.596 287.416 133.284ZM294.257 103.956C293.009 104.216 291.709 103.436 291.397 102.188C291.085 100.888 291.917 99.588 293.165 99.328C294.465 99.016 295.713 99.796 296.025 101.096C296.337 102.344 295.557 103.644 294.257 103.956ZM291.969 135V108.844L295.505 108.116L295.453 135H291.969ZM304.995 112.432C304.995 119.66 321.635 117.112 321.635 126.94C321.635 132.816 316.279 135.26 310.663 135.26C307.491 135.26 304.215 134.48 301.771 133.128C298.859 131.568 299.743 128.968 301.615 128.968C302.343 128.968 303.279 129.384 304.163 130.528C305.983 132.868 308.635 133.856 311.131 133.856C314.875 133.856 318.255 131.724 318.255 128.656C318.255 119.504 301.927 122.988 301.927 113.784C301.927 109.312 305.775 107.804 310.143 107.804C312.171 107.804 314.303 108.116 316.227 108.636C320.231 109.728 319.451 112.64 317.527 112.64C316.903 112.64 316.175 112.328 315.447 111.6C313.731 109.832 311.495 109.104 309.571 109.104C307.075 109.104 304.995 110.352 304.995 112.432ZM336.267 133.284L336.683 134.376C335.175 135.104 333.563 135.572 332.055 135.572C329.611 135.572 327.583 134.22 327.583 130.372L327.531 109.676H325.139V108.792H325.451C327.999 108.792 329.611 106.452 329.767 103.228H331.067V108.428H334.759V109.676H331.067V129.696C331.067 132.192 331.847 133.7 333.927 133.7C334.603 133.7 335.383 133.596 336.267 133.284Z" fill="url(#paint0_linear_3410_42714)"/>
</g>
<defs>
<linearGradient id="paint0_linear_3410_42714" x1="275.5" y1="-49.9687" x2="275.5" y2="135.281" gradientUnits="userSpaceOnUse">
<stop stop-color="#FAC59F"/>
<stop offset="1" stop-color="#6B47AB"/>
</linearGradient>
<clipPath id="clip0_3410_42714">
<rect width="551" height="78" fill="white"/>
</clipPath>
</defs>
</svg>
