<svg width="218" height="37" viewBox="0 0 218 37" fill="none" xmlns="http://www.w3.org/2000/svg">
<path d="M18.552 15.72C18.552 22.408 15.32 25.288 9.496 25.288C3.64 25.288 0.92 21.544 0.92 15.72V2.632H3.256L3.288 15.72H3.256C3.256 20.744 5.72 23.784 10.2 23.784C14.648 23.784 17.208 20.904 17.208 15.72V2.632H18.552V15.72ZM39.988 25H37.332L30.036 15.08L22.644 25H21.172L29.236 13.992L20.884 2.632H23.572L30.58 12.168L35.828 5C36.308 4.36 37.3 3.272 37.012 2.632H39.252L31.38 13.256L39.988 25ZM55.9263 0.519999H57.1423L42.3903 25.736H41.1743L55.9263 0.519999ZM76.5833 15.72C76.5833 22.408 73.3513 25.288 67.5273 25.288C61.6713 25.288 58.9513 21.544 58.9513 15.72V2.632H61.2873L61.3193 15.72H61.2873C61.2873 20.744 63.7513 23.784 68.2313 23.784C72.6793 23.784 75.2393 20.904 75.2393 15.72V2.632H76.5833V15.72ZM80.7713 25V2.632H83.1073L83.1393 25H80.7713ZM111.488 19.304C111.488 22.12 111.84 24.232 112.256 24.712L109.888 25.192C109.568 24.296 109.408 23.336 109.408 22.408C108.096 24.136 105.44 25.192 102.752 25.192C98.7518 25.192 94.6558 22.856 94.6558 16.968C94.6558 11.176 98.9118 8.36 103.552 8.36C105.504 8.36 107.552 8.872 109.344 9.832V0.775999L111.488 0.359999V19.304ZM109.344 18.472L109.376 15.56L109.344 15.624C109.344 11.528 106.784 9.16 103.488 9.16C100.192 9.16 97.1518 11.56 97.1518 17C97.1518 21.768 100.16 24.04 103.712 24.04C106.752 24.04 109.344 22.152 109.344 18.472ZM128.984 22.184C129.432 21.64 129.88 21.448 130.232 21.448C131.032 21.448 131.384 22.44 130.36 23.176C128.6 24.424 126.168 25.16 123.704 25.16C119.32 25.16 114.968 22.76 114.968 16.584C114.968 10.984 119.16 8.456 123.256 8.456C127.064 8.456 130.776 10.696 130.776 14.728C130.776 18.312 127.704 20.296 124.536 20.296C122.744 20.296 120.952 19.656 119.64 18.344L119.96 17.864C121.048 18.792 122.392 19.208 123.672 19.208C126.136 19.208 128.408 17.544 128.408 14.408C128.408 11.144 125.784 9.224 123.095 9.224C120.312 9.224 117.464 11.304 117.464 16.168C117.464 21.864 120.888 24.36 124.216 24.36C126.04 24.36 127.832 23.592 128.984 22.184ZM136.408 11.112C136.408 15.56 146.648 13.992 146.648 20.04C146.648 23.656 143.352 25.16 139.896 25.16C137.944 25.16 135.928 24.68 134.424 23.848C132.632 22.888 133.176 21.288 134.328 21.288C134.776 21.288 135.352 21.544 135.896 22.248C137.016 23.688 138.648 24.296 140.184 24.296C142.488 24.296 144.568 22.984 144.568 21.096C144.568 15.464 134.52 17.608 134.52 11.944C134.52 9.192 136.888 8.264 139.576 8.264C140.824 8.264 142.136 8.456 143.32 8.776C145.784 9.448 145.304 11.24 144.12 11.24C143.736 11.24 143.288 11.048 142.84 10.6C141.784 9.512 140.408 9.064 139.224 9.064C137.688 9.064 136.408 9.832 136.408 11.112ZM151.112 5.896C150.344 6.056 149.544 5.576 149.352 4.808C149.16 4.008 149.672 3.208 150.44 3.048C151.24 2.856 152.008 3.336 152.2 4.136C152.392 4.904 151.912 5.704 151.112 5.896ZM149.704 25V8.904L151.88 8.456L151.848 25H149.704ZM170.134 5.928C170.454 5.736 170.742 5.672 170.998 5.672C172.086 5.672 172.374 7.112 171.222 7.4C168.406 8.168 169.078 10.92 169.462 12.296C169.654 12.936 169.75 13.608 169.75 14.312C169.75 16.552 168.79 18.376 166.902 19.432H166.87C166.774 19.496 166.646 19.56 166.518 19.624L161.398 22.152C161.75 22.12 162.102 22.088 162.454 22.088C167.83 22.088 170.902 24.744 170.902 28.968C170.902 33.192 168.022 36.072 162.39 36.072C156.854 36.072 153.878 33.192 153.878 29.096C153.878 26.408 155.19 24.232 157.654 23.048L162.966 20.424C162.934 20.424 162.87 20.424 162.838 20.424L162.55 20.456C158.678 20.456 155.03 18.76 155.03 14.408C155.03 10.856 157.654 8.36 162.454 8.36C165.11 8.36 167.094 9.096 168.342 10.408C168.086 8.616 168.47 6.888 170.134 5.928ZM162.87 19.624C170.806 19.624 168.79 9.192 162.006 9.192C153.846 9.192 156.246 19.624 162.87 19.624ZM161.942 23.048C152.502 23.048 155.286 35.112 162.966 35.144C172.118 35.144 169.782 23.048 161.942 23.048ZM186.377 19.304C186.377 23.368 186.441 24.52 186.857 25H184.233V15.528C184.233 11.368 182.793 9.512 180.105 9.512C177.225 9.512 174.665 11.912 174.665 15.848L174.633 15.816V25H172.489V14.44C172.489 11.624 172.169 9.512 171.753 9L174.121 8.52C174.473 9.352 174.601 10.76 174.633 11.976C175.817 9.8 178.089 8.424 180.553 8.424C184.329 8.424 186.377 10.472 186.377 15.176V19.304ZM203.577 22.184C204.025 21.64 204.473 21.448 204.825 21.448C205.625 21.448 205.977 22.44 204.953 23.176C203.193 24.424 200.761 25.16 198.297 25.16C193.913 25.16 189.561 22.76 189.561 16.584C189.561 10.984 193.753 8.456 197.849 8.456C201.657 8.456 205.369 10.696 205.369 14.728C205.369 18.312 202.297 20.296 199.129 20.296C197.337 20.296 195.545 19.656 194.233 18.344L194.553 17.864C195.641 18.792 196.985 19.208 198.265 19.208C200.729 19.208 203.001 17.544 203.001 14.408C203.001 11.144 200.377 9.224 197.689 9.224C194.905 9.224 192.057 11.304 192.057 16.168C192.057 21.864 195.481 24.36 198.809 24.36C200.633 24.36 202.425 23.592 203.577 22.184ZM215.194 8.392C217.626 8.392 217.178 10.856 215.13 10.312C214.81 10.216 214.49 10.184 214.17 10.184C212.538 10.184 211.258 11.528 211.258 15.912V25H209.114V14.44C209.114 11.624 208.794 9.512 208.378 9L210.746 8.52C211.066 9.256 211.194 10.408 211.258 11.528C211.962 9.64 213.466 8.392 215.194 8.392Z" fill="url(#paint0_linear_4130_47425)"/>
<defs>
<linearGradient id="paint0_linear_4130_47425" x1="41.1844" y1="3.00002" x2="359.513" y2="31.2483" gradientUnits="userSpaceOnUse">
<stop stop-color="#FAC59F"/>
<stop offset="1" stop-color="#6B47AB"/>
</linearGradient>
</defs>
</svg>
